<svg xmlns="http://www.w3.org/2000/svg" width="19" height="18" viewBox="0 0 19 18">
    <path fill="#9EA0A5" fill-rule="evenodd" d="M9.118 0c.375 0 .678.294.678.656 0 .362-.303.656-.678.656-4.21 0-7.634 3.314-7.634 7.388s3.425 7.388 7.634 7.388c4.21 0 7.635-3.314 7.635-7.388 0-.362.303-.656.678-.656.374 0 .677.294.677.656 0 4.797-4.033 8.7-8.99 8.7S.128 13.497.128 8.7c0-4.797 4.033-8.7 8.99-8.7zm7.813 1.99c.27-.254.707-.254.976.002.27.255.269.669-.001.923L9.119 11.21c-.13.121-.305.19-.487.19h-.015c-.188-.004-.366-.08-.493-.21L4.651 7.62c-.258-.266-.24-.68.04-.923.28-.245.717-.227.975.038l2.987 3.07z"/>
</svg>
