<svg xmlns="http://www.w3.org/2000/svg" width="15" height="15" viewBox="0 0 15 15">
    <path fill="#9EA0A5" fill-rule="evenodd" d="M14.031 7.372c0-.38-.038-.778-.114-1.196H7.201v2.448h4.013c-.076.417-.237.835-.484 1.252-.342.512-.769.92-1.28 1.224-.646.38-1.395.57-2.25.57-.796 0-1.526-.205-2.19-.613-.665-.408-1.196-.948-1.594-1.622-.399-.674-.598-1.418-.598-2.234 0-.949.256-1.793.768-2.533.475-.683 1.1-1.195 1.879-1.537.778-.341 1.565-.455 2.362-.341.854.113 1.584.464 2.191 1.053l1.907-1.85C10.616.759 9.041.143 7.201.143c-1.271 0-2.448.318-3.53.953-1.08.636-1.94 1.494-2.575 2.576C.461 4.753.143 5.93.143 7.2s.318 2.447.953 3.529c.636 1.081 1.494 1.94 2.576 2.575 1.081.636 2.258.954 3.529.954 1.347 0 2.538-.294 3.572-.882 1.034-.589 1.835-1.404 2.404-2.448.57-1.043.854-2.23.854-3.557z"/>
</svg>
