<svg xmlns="http://www.w3.org/2000/svg" width="20" height="20" viewBox="0 0 20 20">
    <path fill="#9EA0A5" fill-rule="evenodd" d="M9.99 0C15.52 0 20 4.48 20 10S15.52 20 9.99 20C4.47 20 0 15.52 0 10S4.47 0 9.99 0zm1.92 14H8.09c.43 1.43 1.08 2.76 1.91 3.96.83-1.2 1.48-2.53 1.91-3.96zm-5.88 0H3.08c.96 1.66 2.49 2.93 4.33 3.56-.6-1.11-1.06-2.31-1.38-3.56zm10.89 0h-2.95c-.32 1.25-.78 2.45-1.38 3.56 1.84-.63 3.37-1.91 4.33-3.56zM5.64 8H2.26C2.1 8.64 2 9.31 2 10s.1 1.36.26 2h3.38c-.08-.66-.14-1.32-.14-2 0-.68.06-1.34.14-2zm6.7 0H7.66c-.09.65-.16 1.32-.16 2 0 .68.07 1.34.16 2h4.68c.09-.66.16-1.32.16-2 0-.68-.07-1.35-.16-2zm5.4 0h-3.38c.08.66.14 1.32.14 2 0 .68-.06 1.34-.14 2h3.38c.16-.64.26-1.31.26-2s-.1-1.36-.26-2zm-5.15-5.56c.6 1.11 1.06 2.31 1.38 3.56h2.95c-.96-1.65-2.49-2.93-4.33-3.56zM10 2.04C9.17 3.24 8.52 4.57 8.09 6h3.82c-.43-1.43-1.08-2.76-1.91-3.96zm-2.59.4C5.57 3.07 4.04 4.34 3.08 6h2.95c.32-1.25.78-2.45 1.38-3.56z"/>
</svg>
