<svg xmlns="http://www.w3.org/2000/svg" width="20" height="24" viewBox="0 0 20 24">
    <path fill="#9EA0A5" fill-rule="evenodd" d="M19.6 15.296c0-1.076-.768-1.975-1.786-2.182v-2.405c0-.22-.108-.424-.288-.55-.18-.124-.411-.153-.617-.076l-1.278.478c-.84-.87-1.86-1.525-2.978-1.928 1.099-.812 1.812-2.114 1.812-3.58C14.465 2.598 12.462.6 10 .6 7.538.6 5.535 2.598 5.535 5.053c0 1.466.713 2.768 1.812 3.58-1.118.403-2.138 1.058-2.978 1.928l-1.278-.478c-.206-.077-.436-.048-.617.077-.18.125-.288.33-.288.549v2.405C1.168 13.32.4 14.22.4 15.296c0 1.075.768 1.975 1.786 2.181v2.584c0 .278.173.527.435.625l7.144 2.672c.15.056.32.056.47 0l7.144-2.672c.262-.098.435-.347.435-.625v-2.584c1.018-.206 1.786-1.106 1.786-2.181zM6.874 5.053c0-1.719 1.403-3.117 3.126-3.117 1.723 0 3.126 1.398 3.126 3.117 0 1.72-1.403 3.117-3.126 3.117-1.723 0-3.126-1.398-3.126-3.117zM10 9.506c1.57 0 3.068.566 4.237 1.577L10 12.667l-4.237-1.584C6.933 10.073 8.43 9.506 10 9.506zm-8.26 5.79c0-.491.4-.891.893-.891h.446v1.781h-.446c-.493 0-.893-.4-.893-.89zM3.526 17.5c.508-.104.893-.553.893-1.091v-2.227c0-.537-.385-.987-.893-1.09v-1.42l5.804 2.172v7.925l-5.804-2.171V17.5zm7.144 4.269v-7.925l5.804-2.171v1.418c-.508.104-.893.554-.893 1.091v2.227c0 .538.385.987.893 1.09v2.099l-5.804 2.17zm6.697-5.583h-.446v-1.781h.446c.493 0 .893.4.893.89 0 .492-.4.891-.893.891z"/>
</svg>
