<svg xmlns="http://www.w3.org/2000/svg" width="22" height="22" viewBox="0 0 22 22">
    <path fill="#9EA0A5" fill-rule="evenodd" d="M19 .565c.174.087.26.261.26.435v1.74H21c.174 0 .348.086.435.26 0 .174 0 .348-.087.522l-3.044 3.043c-.087 0-.26.087-.347.087H15.96l-.26.26c1.4 1.545 2.256 3.591 2.256 5.827 0 4.783-3.914 8.696-8.696 8.696-4.783 0-8.696-3.913-8.696-8.696 0-4.782 3.913-8.696 8.696-8.696 2.238 0 4.286.858 5.831 2.26l.255-.258V4.043c0-.086.088-.26.088-.347L18.478.652c.174-.087.348-.087.522-.087zM9.26 4.913c-4.347 0-7.825 3.478-7.825 7.826 0 4.348 3.478 7.826 7.826 7.826 4.348 0 7.826-3.478 7.826-7.826 0-2.015-.747-3.844-1.983-5.226l-1.542 1.552c.843.987 1.351 2.27 1.351 3.674 0 3.13-2.522 5.652-5.652 5.652-3.13 0-5.652-2.521-5.652-5.652 0-3.13 2.521-5.652 5.652-5.652 1.414 0 2.703.514 3.692 1.367l1.542-1.551c-1.383-1.24-3.215-1.99-5.234-1.99zm0 3.044c-2.608 0-4.782 2.173-4.782 4.782s2.174 4.783 4.783 4.783c2.609 0 4.782-2.174 4.782-4.783 0-1.146-.42-2.208-1.111-3.04l-1.521 1.531c.29.422.459.94.459 1.51 0 1.477-1.13 2.608-2.61 2.608-1.477 0-2.608-1.13-2.608-2.609 0-1.478 1.13-2.609 2.609-2.609.586 0 1.117.178 1.544.484l1.518-1.527c-.834-.703-1.905-1.13-3.062-1.13zm0 3.043c-.956 0-1.738.783-1.738 1.74 0 .956.782 1.738 1.739 1.738.956 0 1.739-.782 1.739-1.739 0-.313-.084-.608-.23-.863l-1.205 1.21c0 .088-.174.088-.26.088-.088 0-.262 0-.348-.088-.174-.175-.174-.437 0-.612l1.21-1.217c-.264-.163-.575-.257-.906-.257zm9.131-8.957l-2.174 2.174v1.566h1.566l2.174-2.174h-1.13c-.262 0-.436-.174-.436-.435v-1.13z"/>
</svg>
