<svg xmlns="http://www.w3.org/2000/svg" width="16" height="13" viewBox="0 0 16 13">
    <path fill="#9EA0A5" fill-rule="evenodd" d="M14.117 3.134c.623-.462 1.155-1.015 1.597-1.657-.602.26-1.205.431-1.808.512.683-.422 1.145-1.005 1.386-1.748-.622.362-1.295.613-2.019.753-.3-.3-.647-.542-1.04-.723-.391-.18-.818-.271-1.28-.271-.562 0-1.085.14-1.567.422-.482.281-.864.668-1.145 1.16-.281.492-.422 1.02-.422 1.582 0 .241.02.482.06.723-1.285-.06-2.496-.381-3.63-.964C3.112 2.34 2.153 1.557 1.37.573c-.302.502-.452 1.03-.452 1.582s.13 1.06.391 1.521c.261.462.603.844 1.025 1.145-.502-.02-.975-.16-1.416-.421v.06c0 .743.24 1.406.723 1.989.482.582 1.085.954 1.808 1.115-.281.06-.563.09-.844.09-.18 0-.372-.01-.573-.03.201.623.568 1.14 1.1 1.552.533.412 1.15.617 1.854.617-1.166.905-2.481 1.357-3.948 1.357-.281 0-.532-.01-.753-.03 1.466.944 3.083 1.416 4.851 1.416 1.848 0 3.486-.472 4.912-1.417 1.306-.843 2.32-1.978 3.044-3.405.703-1.346 1.054-2.742 1.054-4.188 0-.181-.01-.312-.03-.392z"/>
</svg>
