<svg xmlns="http://www.w3.org/2000/svg" width="31" height="24" viewBox="0 0 31 24">
    <path fill="#1665D8" fill-rule="evenodd" d="M24.627 4.293l.07.003c.027-.005.042-.002.053.005l-.04-.004.146.02c.045.014.008.071.003.101l-.001.027c.176.227.21.51.255.75.055.29.036.54-.357.747-.175.091-.369.148-.583.2-.208.05-.546.02-.638.143-.297.4-.241-.085-.34-.212-.062-.098-.119-.202-.16-.307-.102.07-.156.09-.18.08-.265.704-.671 1.378-1.166 1.913.105.038.224.138.338.24l.056.048c.038.029.072.043.1.043.103 0 .155-.2.169-.263.004-.018.015-.033.03-.04l.026-.006c.027 0 .05.02.056.048.064.326-.242.617-.463.732-.143.075-.284.109-.423.1-.115-.013-.197-.069-.277-.123-.055-.038-.107-.073-.167-.092-.09-.03-.14.012-.227.097l-.061.058c-.127.113-.26.225-.396.332-.203.16-.425.32-.67.484l-.255.165-.316.198c-.52.323-1.01.63-1.47 1.028-.558.485-1.024 1.017-1.388 1.582.099.041.187.101.273.16.107.072.208.14.322.172.158.043.244-.09.276-.421.003-.03.026-.052.054-.054.028-.002.053.019.059.048.093.456-.184.853-.475 1.072-.332.252-.656.288-1.031.114-.318.994-.497 2.148-.546 3.515.27-.622.632-1.207 1.078-1.745-.021-.004-.042-.007-.06-.014-.09-.034-.171-.071-.246-.135-.168-.143-.184-.326-.17-.54.012-.196.016-.431.105-.61.005-.014.005-.042.017-.053l.017-.002.086.04c.048.023.094.057.131.097.072.077.156.154.19.258.012.034.067.363.129.308.037-.022.022-.118.025-.155.001-.026.005-.111.04-.12.063.019.1.113.12.17.017.046.022.1.025.153l.002.077-.002.071c.102-.104.207-.207.317-.308.126-.117.258-.232.393-.344.03-.025.061-.048.093-.07.127-.093.204-.157.193-.291-.009-.1-.035-.188-.06-.274-.051-.181-.105-.369.031-.61.182-.334.513-.54.835-.509.076.007.15.026.217.057.027.011.041.043.033.072-.009.03-.037.047-.065.042-.026-.005-.077-.013-.134-.013-.09 0-.197.019-.205.107-.01.119.044.235.101.358.044.096.09.195.108.301l.3-.18c.258-.153.51-.304.758-.46-.076-.092-.256-.085-.368-.143-.132-.07-.251-.142-.355-.253-.235-.253-.229-.539-.172-.864.053-.302.1-.663.267-.923.01-.02.015-.064.035-.077l.027-.001.126.078c.07.045.135.106.185.174.098.133.214.266.25.433.012.055.04.573.145.5.06-.027.055-.178.065-.235.006-.04.026-.17.081-.176.096.04.135.192.158.285.027.11.01.246.002.358-.017.229-.098.46-.187.668l-.007.017c.49-.318.958-.66 1.391-1.081.352-.341.66-.698.922-1.065l-.087.026-.157.04c-.208.05-.546.02-.637.143-.298.4-.242-.084-.341-.211-.118-.188-.22-.397-.224-.599-.002-.099-.013-.22.04-.314.046-.08.123-.211.277-.24.085.008.103.124.11.16.008.05-.016.182.077.21.155.07.253-.382.277-.43.075-.144.27-.254.436-.364.086-.056.194-.106.309-.141.068-.021.138-.04.205-.06.071-.013.07.048.089.072.164.167.231.374.274.575l-.076.17c.13-.272.24-.55.325-.833-.164.02-.286.017-.034-.245.122-.127.036-.42.06-.624.024-.21.056-.405.13-.594.167-.428.443-.537.772-.593.305-.052.665-.137.966-.013.03.008.097-.016.095.053-.013.068-.023.137-.035.206-.022.115-.06.23-.11.328-.076.15-.15.317-.25.44l-.022.004c.08-.022.167-.029.25-.02.048.006.096.015.145.02.045.014.007.072.003.102-.02.312-.193.629-.327.9-.145.295-.307.525-.64.575-.147.021-.284.002-.429-.028-.14-.029-.302-.183-.424-.1-.047.03-.083.052-.112.065-.06.207-.132.412-.216.615.006.172-.041.328-.217.467-.24.461-.537.892-.875 1.258.105.038.224.138.338.24.024.022.044.04.056.049.038.028.071.042.1.042.103 0 .155-.2.169-.262.003-.019.015-.033.03-.041l.025-.006.026.006c.015.008.027.023.03.042.064.327-.242.617-.463.733-.142.074-.283.108-.422.098-.115-.012-.198-.068-.278-.122-.055-.038-.107-.073-.166-.092-.09-.03-.141.012-.227.097-.02.02-.04.04-.061.058-.128.113-.261.225-.396.332-.272.215-.575.427-.926.649l-.315.197-.38.238c.084-.017.172-.03.25-.02.09.014.239.038.287.133.001.057-.12.093-.158.105-.052.016-.196.027-.215.094-.057.117.437.087.49.093.163.02.303.125.44.212.07.044.135.105.186.173l.088.123c.022.044-.044.055-.067.073-.227.204-.565.293-.845.382-.302.096-.572.136-.838-.08-.118-.095-.2-.211-.28-.341-.068-.108-.083-.291-.175-.363-.086.067-.17.135-.254.208-.557.484-1.024 1.016-1.387 1.582.066.027.127.063.186.1l.192.129c.07.044.14.081.217.102.158.043.243-.09.276-.42.002-.03.025-.053.053-.055.028-.002.054.019.06.048.092.456-.185.853-.475 1.073-.332.251-.656.287-1.032.113-.195.635-.33 1.613-.419 2.475.333-.97.926-1.851 1.996-2.003.822-.12 1.791.246 2.93.682 1.326.508 2.833 1.084 4.598 1.084 1.184 0 2.315-.26 3.46-.79l.387-.178.19 4.033 1.297.001V24h-30v-1.585h1.346l.19-4.034.387.178c1.148.531 2.279.79 3.462.79l.402-.01c1.59-.079 2.967-.605 4.195-1.073 1.136-.434 2.106-.801 2.933-.683.346.049.643.175.897.356-.063-.3-.133-.578-.21-.811-.373.182-.697.153-1.034-.09-.295-.213-.58-.604-.497-1.062.006-.029.027-.048.058-.049.029.001.052.023.055.053.04.33.127.46.285.414.114-.034.213-.104.318-.18.085-.06.172-.121.27-.164-.307-.456-.684-.888-1.12-1.288-.083.087-.063.274-.11.395-.056.144-.116.274-.214.39-.222.265-.495.28-.81.245-.29-.032-.638-.054-.897-.21-.02-.009-.062-.01-.077-.03l-.003-.028.065-.138c.038-.076.09-.149.152-.207.119-.112.237-.243.393-.294.052-.016.543-.085.465-.188-.03-.062-.174-.044-.228-.05-.039-.004-.165-.015-.174-.072.03-.103.172-.155.259-.187.102-.036.233-.03.341-.029.155 0 .314.035.466.083-.447-.36-.92-.642-1.419-.938l-.204-.121c-.133.062-.098.287-.152.426-.056.144-.116.274-.215.39-.222.265-.495.28-.809.245-.29-.033-.638-.054-.898-.21-.026-.012-.093-.01-.08-.058.023-.045.043-.092.065-.138.038-.077.091-.15.153-.207.118-.112.237-.243.393-.294.051-.016.542-.085.465-.188-.031-.062-.174-.045-.229-.05-.038-.004-.164-.016-.174-.072.031-.103.173-.155.26-.187.102-.036.233-.03.34-.029.124 0 .25.023.373.056-.196-.128-.378-.254-.547-.382-.136-.102-.272-.21-.403-.322l-.062-.057c-.078-.074-.136-.125-.229-.092-.06.02-.11.057-.165.096-.078.056-.16.114-.272.128l-.062.003c-.119 0-.242-.031-.365-.092-.223-.11-.535-.394-.478-.722.005-.028.028-.048.055-.05.03 0 .05.019.057.046.014.06.07.259.172.259.029 0 .063-.015.1-.045.013-.01.032-.028.056-.05.112-.104.228-.207.333-.247-.269-.278-.513-.596-.725-.937-.08.035-.165.088-.243.102-.16.029-.313.044-.474.006-.364-.087-.53-.397-.674-.788-.134-.361-.309-.782-.312-1.188-.004-.04-.042-.116.008-.132.054-.003.107-.011.161-.015l.03-.001c-.007-.004-.014-.011-.02-.019-.232-.256-.22-.542-.159-.866.057-.3.11-.661.281-.918.014-.026.02-.096.063-.077.041.027.084.052.125.08.07.046.134.108.183.178.096.133.21.27.243.437.012.055.032.573.137.502.062-.027.058-.178.068-.234.008-.04.03-.17.085-.175.094.041.132.194.153.287.026.11.007.247-.003.36-.021.227-.106.458-.198.664-.007.014-.014.032-.02.053.057.163.12.325.192.485.015.002.025-.007.03-.026.04-.077-.056-.233-.081-.3-.018-.048-.078-.203-.032-.252.11-.031.237.1.314.181.04.043.075.097.107.155l.005-.024c.014-.027.045-.039.072-.027.245.103.34.432.287.679-.014.065-.042.119-.075.163.021.096.038.195.053.291.011.123.135.384.14.492.24.309.518.609.828.896.23.215.471.406.718.586.028-.06.053-.119.06-.159.05-.221.121-.456.241-.648.059-.095.126-.213.211-.283.072-.059.192-.154.291-.124.04.04-.02.156-.038.192-.026.05-.118.166-.086.227.04.125.364-.267.406-.303.126-.109.296-.14.45-.183.08-.021.167-.028.25-.019.048.005.096.014.144.02.046.014.008.071.003.1-.018.313-.192.63-.326.902-.145.294-.307.525-.64.574-.147.022-.284.003-.429-.027-.108-.023-.227-.118-.333-.124.482.33.989.618 1.513.915l.304.173c.016-.107.06-.207.102-.304.054-.124.105-.241.093-.36-.007-.068-.072-.102-.193-.102-.062 0-.119.01-.147.016-.028.006-.057-.012-.066-.04-.009-.03.005-.061.031-.074.067-.031.14-.052.217-.06.318-.039.656.16.845.49.14.237.09.426.042.608-.023.086-.046.176-.053.275-.009.135.07.197.2.286.03.022.063.045.093.069.137.108.271.22.4.335.065.057.131.117.2.183.062-1.048.01-1.9-.163-2.664-.272.092-.5.042-.72-.156-.196-.177-.371-.481-.276-.805.008-.028.034-.046.062-.042.028.004.049.03.05.059.004.298.094.3.124.3l.012-.001.014-.002c.08-.014.154-.055.232-.099.059-.033.12-.066.184-.09-.22-.413-.514-.81-.872-1.18-.3-.31-.627-.558-.974-.819l-.211-.16c-.235-.18-.436-.349-.616-.518-.074-.07-.15-.144-.222-.22-.033.18-.022.44-.288.118-.1-.123-.435-.082-.647-.128-.217-.047-.415-.099-.596-.187-.408-.2-.447-.455-.415-.751.03-.274.04-.601.256-.85.017-.025.01-.087.082-.077l.21.056c.117.033.229.08.319.136l-.087-.046c-.045-.115-.085-.232-.12-.35-.027-.014-.06-.036-.104-.069-.119-.089-.287.057-.429.079-.146.022-.283.034-.43.004-.33-.067-.48-.306-.61-.607-.122-.279-.28-.604-.284-.917-.002-.023-.022-.062-.013-.085l.021-.017.146-.011c.082-.005.169.007.248.033.152.05.32.09.44.206.04.038.346.446.391.324.036-.06-.051-.18-.074-.232-.016-.036-.071-.156-.03-.194.1-.024.216.078.285.14.082.074.143.196.197.293l.051.104.042.107-.002-.042-.002-.043c-.001-.032.021-.06.051-.062.032-.001.058.019.062.05.04.279.113.556.215.827.038-.04.092-.068.14-.093.03-.016.101-.052.103-.07 0 0 0-.02-.054-.068-.022-.02-.027-.054-.01-.08.016-.025.048-.033.074-.019.173.096.218.346.16.522-.032.1-.106.154-.16.186-.02.013-.06.036-.067.047.002.007.025.052.036.074l.11.196c.07.052.13.108.167.17.014.024.051.14.103.248.04.058.084.117.129.175.026.018.052.021.078.007.091-.03.056-.164.061-.216.004-.036.012-.155.096-.166.028.005.053.012.077.023.029-.076.065-.149.107-.216.059-.095.126-.214.211-.283.073-.059.192-.154.291-.124.04.04-.02.156-.038.192-.025.05-.118.166-.086.227.04.125.364-.267.406-.303.098-.084.22-.122.343-.154-.328-.102-.484-.4-.62-.77-.134-.361-.309-.783-.313-1.189-.003-.039-.042-.116.009-.131.054-.004.107-.012.161-.015.09-.006.187.008.273.042.168.065.354.118.487.267.044.05.38.579.43.42.04-.076-.056-.232-.081-.3-.018-.047-.079-.202-.032-.251.11-.032.237.1.314.181.09.096.157.254.217.38.122.257.188.567.232.857.018.204.35.793-.076.419-.13-.115-.316.073-.473.101l-.006.002c-.003.02-.015.044-.018.06-.018.312-.192.629-.326.9-.145.295-.307.526-.64.575-.147.021-.284.002-.429-.028-.033-.006-.066-.02-.1-.035-.01.036-.022.073-.036.11l-.195-.198c.29.312.606.578.94.83.016-.034.03-.068.034-.092.032-.142.078-.294.155-.418.038-.06.081-.137.136-.182.047-.037.124-.099.188-.08.026.026-.013.1-.025.124-.016.033-.076.107-.055.147.025.08.234-.173.261-.196.082-.07.19-.09.29-.117.052-.014.108-.019.16-.013.032.004.063.01.094.013.03.009.005.046.002.065-.012.201-.124.405-.21.58l-.047.088c.19.064.337.229.41.394.085.185.035.318-.014.446-.022.058-.045.118-.056.186-.015.084.03.129.113.2.02.018.042.037.062.057l.12.12c.03-.067.062-.134.069-.18.05-.22.122-.456.241-.648.059-.094.126-.213.211-.282.073-.059.193-.154.291-.125.04.04-.02.157-.038.192-.025.051-.118.167-.085.228.039.124.364-.268.405-.303.126-.11.296-.14.45-.183.08-.022.167-.028.25-.02.048.006.096.015.145.02.045.014.007.072.003.102-.02.312-.193.628-.327.9-.145.294-.307.525-.64.574-.147.022-.284.003-.429-.027-.137-.028-.292-.173-.413-.106l.004.006c.162.177.31.36.438.54.285.403.509.835.668 1.286.06-.175.132-.354.213-.533l.079-.17.085-.17.042-.073c.057-.095.087-.152.048-.227-.032-.061-.071-.11-.11-.158-.084-.106-.172-.215-.146-.42.025-.23.164-.503.419-.589l.08-.02.081-.007.027.007c.016.009.028.025.03.046.004.03-.015.058-.044.065-.072.017-.155.055-.18.099-.006.012-.007.024-.002.039.023.075.087.133.155.195.05.045.1.091.14.147l.134-.185c.28-.386.548-.759.78-1.158-.014-.029-.03-.065-.046-.116-.05-.143-.267-.124-.395-.191-.132-.07-.252-.142-.356-.253-.235-.253-.228-.539-.171-.864.052-.301.1-.663.267-.923.013-.026.017-.096.061-.078l.126.078c.07.045.136.106.186.174.098.133.214.266.25.433.012.055.04.573.144.5.062-.028.056-.178.065-.235.007-.04.027-.17.082-.176.095.04.135.192.158.284.027.11.01.247.002.36-.013.165-.058.332-.117.49l-.052.13.058-.115.064-.144c.178-.418.302-.832.37-1.23.003-.025.012-.075.008-.088l-.074-.017c-.06-.013-.147-.04-.208-.124-.107-.148-.139-.4-.003-.548.02-.023.053-.025.076-.006.023.018.03.052.014.078-.037.063-.031.083-.031.083.007.016.085.028.119.032.054.008.113.017.16.042.01-.168.008-.335-.004-.5l-.053-.037c-.118-.089-.286.057-.429.078-.146.022-.283.034-.43.005-.33-.067-.48-.306-.61-.607-.121-.28-.28-.604-.283-.917-.004-.03-.038-.09.007-.102l.146-.011c.083-.005.17.006.248.032.152.05.32.091.441.206.04.038.345.447.39.325.036-.06-.05-.18-.074-.232-.016-.037-.07-.156-.029-.194.1-.024.215.077.285.14.082.074.143.196.197.293.075.135.126.289.164.444l.034.155c.03-.008.06.01.068.041.125.457.157.977.102 1.488.047-.167.109-.333.198-.475.058-.095.125-.213.21-.283.022-.017.047-.038.075-.057-.01-.043-.024-.081-.043-.106-.118-.188-.22-.396-.224-.598-.002-.1-.013-.22.04-.315.046-.08.123-.21.277-.24.085.009.103.125.11.16.009.05-.016.182.077.21.155.071.253-.381.277-.429.075-.144.27-.254.436-.364.086-.057.194-.106.309-.142l.205-.06c.072-.012.07.049.089.073.235.238.271.559.322.827.055.29.036.54-.357.747-.072.038-.148.07-.226.097l.051.006c.045.015.008.072.003.102-.019.312-.193.629-.327.9-.145.295-.306.526-.64.575-.147.022-.284.002-.428-.027-.141-.03-.302-.184-.425-.102-.044.03-.079.05-.107.064-.034.139-.071.276-.118.407.086.001.193.036.264.059.02.007.038.012.048.014.048.012.073 0 .082-.013.024-.029.029-.101.014-.188-.005-.027.01-.055.034-.066.025-.01.054-.002.07.021.133.202.009.49-.108.633-.075.093-.16.158-.255.193-.074.025-.151.015-.222.003-.045-.009-.086-.016-.128-.011-.044.005-.065.025-.086.068l-.022.051-.025.056c-.052.11-.11.223-.17.332-.12.22-.26.447-.43.694-.05.075-.101.148-.152.222-.057.08-.112.161-.167.24-.021.043-.035.086-.02.115.04.125.365-.267.406-.303.127-.109.296-.14.45-.182.08-.022.168-.029.25-.02l.145.02c.045.014.008.071.003.101-.019.313-.193.629-.327.9-.145.295-.307.526-.64.575-.147.022-.284.003-.429-.027-.14-.03-.301-.184-.424-.102-.015.011-.028.019-.042.027-.168.388-.29.776-.361 1.16.069 0 .137.013.202.024.087.016.168.031.25.018.046-.008.063-.028.072-.043.03-.05.024-.147-.018-.289-.009-.028.004-.058.029-.071.025-.014.056-.005.072.019.187.276.111.623-.022.855-.143.25-.335.371-.604.382v.01c.003.104.002.208 0 .312.084.647.268 1.353.561 2.144l.133.344.038.094c.001-.319.02-.64.054-.96.083-.768.296-1.514.628-2.215-.08-.032-.154-.067-.222-.125-.168-.143-.184-.327-.17-.54.012-.196.016-.431.105-.61.005-.014.005-.042.017-.053l.017-.002.086.04c.048.023.094.057.131.097.072.077.156.154.191.257.012.035.066.364.128.31.037-.023.022-.12.025-.156.001-.026.005-.112.04-.12.042.012.072.058.093.104.177-.277.373-.545.59-.8.097-.115.2-.23.309-.343-.06-.026-.115-.057-.166-.101-.168-.143-.184-.327-.171-.54.012-.196.016-.432.105-.61.007-.019.005-.064.034-.056l.086.04c.048.024.094.058.132.098l.07.074.002-.01c.053-.295.13-.609.257-.865.062-.126.133-.284.224-.377.077-.078.204-.205.31-.166.042.053-.022.209-.041.256-.027.068-.126.222-.091.304.042.166.387-.357.431-.405.134-.145.315-.187.48-.243.084-.03.177-.038.264-.026.051.007.103.019.154.026l.01.005.054.071c-.234-.252-.228-.538-.171-.864.052-.3.1-.663.267-.922.013-.027.017-.096.061-.079l.126.078c.07.046.136.107.186.175.098.133.214.266.25.433.012.055.04.573.144.5.062-.028.056-.179.065-.235.007-.04.027-.17.082-.177.095.04.135.192.158.285.027.11.01.247.002.359-.017.229-.098.46-.187.668-.006.01-.01.024-.015.04.53-.338 1.033-.7 1.498-1.15.454-.442.836-.908 1.137-1.388.016-.027.03-.048.038-.065-.016-.018-.032-.042-.049-.071-.073-.124-.412-.11-.611-.17-.204-.06-.389-.125-.548-.222-.36-.219-.343-.464-.247-.741.09-.257.171-.566.439-.786.022-.022.03-.082.098-.066.064.024.13.045.195.068.108.04.208.093.285.153.15.114.327.23.38.374.011.031.03.239.088.356l-.025.008c.027-.012.058 0 .072.026.005.01.008.02.008.03.019.016.043.02.07.01.096-.023.09-.152.107-.2.011-.034.046-.146.131-.15.097.023.155.086.193.15.059-.173.109-.347.149-.522.007-.03.036-.05.066-.045.03.006.05.035.046.067-.017.14-.041.28-.071.422l.02-.025-.04.112c.041-.12.09-.236.155-.34.06-.094.126-.213.211-.282.073-.06.193-.154.292-.125.04.04-.02.156-.039.192-.025.051-.118.167-.085.228.04.124.364-.268.405-.304.127-.108.296-.14.45-.182l.082-.017.084-.007zM17.844 18.27l-.182.017c-1.6.228-1.841 2.822-1.877 3.772h12.757l-.125-2.667c-1.087.449-2.168.668-3.293.668-1.857 0-3.482-.62-4.786-1.119-1.066-.407-1.962-.759-2.676-.654zm-4.547.015c-.711-.104-1.61.246-2.676.654-1.306.5-2.928 1.119-4.783 1.119l-.373-.008c-.992-.044-1.954-.261-2.92-.66l-.125 2.666h12.754c-.006-.157-.018-.36-.04-.59l-.373-.006c-.031 0-.056-.026-.057-.058 0-.016-.075-1.117-.237-2.279-.273-.438-.65-.764-1.17-.838zm-4.9-9.695c.063.024.13.045.194.069.109.04.209.093.286.152.149.115.326.23.38.374.017.047.048.491.212.43.097-.023.091-.152.107-.2.012-.034.046-.146.132-.15.148.036.205.166.24.246.039.094.01.21-.006.307-.033.195-.164.393-.308.569-.117.118-.13.59-.368.188-.073-.123-.413-.11-.612-.17-.204-.06-.389-.124-.548-.221-.36-.22-.343-.464-.246-.742.089-.257.17-.566.438-.785.022-.023.03-.082.098-.067zm10.235.05c.01.032-.014.084-.018.114 0 .023-.002.046-.004.068.018.008.032.039.024.068-.006.02-.02.034-.038.04-.032.222-.104.443-.183.653.012.033.02.067.026.102l.302-.18c.225-.134.447-.266.665-.401-.072-.104-.26-.095-.375-.156-.132-.069-.252-.141-.356-.253zM12.73 6.444c.064.024.13.045.195.068.108.04.208.093.285.152.15.115.327.231.38.374.017.048.049.491.213.43.096-.022.09-.152.107-.2.011-.034.046-.145.131-.15.148.036.206.167.24.246.04.095.01.211-.005.307-.033.196-.165.393-.308.57-.117.118-.13.59-.368.188-.073-.124-.413-.11-.612-.17-.204-.061-.389-.125-.548-.222-.36-.22-.343-.464-.247-.742.09-.257.171-.565.439-.785.022-.022.03-.082.098-.066zm1.138-2.148c.07-.012.07.049.088.073.235.238.271.559.322.827.055.29.036.54-.357.747-.174.091-.369.148-.582.2-.208.05-.547.02-.638.143-.298.4-.242-.085-.34-.212-.119-.188-.221-.396-.225-.598-.001-.1-.013-.22.04-.315.046-.08.124-.21.277-.24.085.009.103.125.11.16.009.05-.016.183.077.21.155.072.253-.381.277-.429.075-.144.27-.254.436-.364.086-.057.194-.106.31-.142zm5.363.001c.064.024.13.045.195.068.108.04.208.093.285.153.15.114.327.23.38.374.017.047.049.49.213.43.096-.023.09-.152.107-.2.011-.034.046-.146.131-.15.148.035.206.166.24.246.04.094.01.21-.006.307-.032.195-.163.392-.308.568-.116.119-.13.591-.367.189-.073-.124-.413-.11-.612-.17-.204-.06-.389-.125-.548-.222-.36-.219-.343-.464-.247-.741.09-.257.171-.566.439-.786.022-.022.03-.082.098-.066zm-6.84-2.148c.07.017.142.032.212.05.119.03.234.074.328.128.183.104.393.207.49.352.033.048.204.512.345.429.087-.035.041-.17.042-.223 0-.037-.002-.159.081-.173.156.021.254.152.313.233.068.095.077.221.092.324.03.21-.037.433-.122.635-.076.138.06.637-.3.24-.111-.122-.44-.07-.654-.11-.22-.042-.42-.088-.607-.172-.422-.191-.483-.451-.477-.755.007-.28-.011-.616.181-.877.015-.027.003-.09.075-.081zm7.977 0c.071-.012.07.05.089.073.235.239.271.56.322.827.055.29.036.54-.357.747-.174.092-.369.148-.583.2-.208.05-.546.02-.637.143-.298.4-.242-.084-.34-.212-.119-.187-.221-.396-.225-.598-.002-.099-.013-.22.04-.315.046-.08.123-.21.277-.24.085.009.103.125.11.16.009.05-.016.183.077.21.155.072.253-.381.277-.429.075-.144.27-.254.436-.364.086-.057.194-.106.309-.141.068-.021.138-.04.205-.06zm-12.312 0l.213.05c.12.03.234.074.328.128.183.104.393.207.49.352.013.019.047.101.092.19.031-.078-.059-.225-.083-.29-.018-.048-.078-.203-.032-.252.11-.031.237.1.314.181.055.058.101.14.142.223l.035-.019c.156.021.254.153.313.233.068.095.077.221.092.324.03.21-.036.433-.122.635l.016-.042c.076.246.257.618-.103.302l.047.04c-.017.108-.068.153-.26-.06l.009.008c-.09.035-.183.099-.269.114-.16.029-.313.044-.474.006-.23-.055-.382-.2-.498-.397l-.029-.013c-.422-.191-.483-.451-.476-.755.003-.175-.002-.37.04-.557-.014-.085-.023-.17-.023-.255-.004-.039-.043-.116.008-.131.054-.003.107-.011.161-.015.007 0 .017 0 .029.002h.006l.034-.002zm7.978 0c.072-.012.07.05.089.073.235.239.271.56.322.827.055.29.036.541-.357.747-.174.092-.369.148-.583.2-.207.05-.546.02-.637.143-.298.4-.242-.084-.34-.212-.119-.187-.221-.396-.225-.598-.002-.1-.013-.22.04-.315.046-.08.123-.21.277-.24.085.009.103.125.11.16.009.05-.016.183.077.21.155.072.253-.381.277-.429.075-.144.27-.254.436-.364.086-.057.194-.106.31-.141zM12.39.001c.07.018.143.033.213.05.119.03.234.075.328.129.183.104.393.206.49.351.033.048.204.512.345.43.087-.035.041-.17.042-.224 0-.037-.002-.158.081-.172.156.02.254.152.313.232.068.095.077.221.092.324.03.21-.037.433-.122.635-.076.138.06.638-.3.24-.111-.122-.44-.07-.654-.11-.22-.041-.42-.088-.607-.172-.422-.19-.483-.45-.477-.755.007-.28-.011-.615.181-.877.015-.026.003-.09.075-.081zm5.437 0l.037.008c.04.035.084.07.125.105.069.06.121.13.149.2.054.135.132.278.082.417-.017.046-.288.447-.103.43.1.001.183-.115.23-.154.032-.028.138-.12.217-.104.106.065.068.194.044.273-.028.092-.132.19-.211.271-.16.166-.41.312-.655.436-.183.08-.514.496-.451.085.019-.126-.29-.19-.424-.288-.139-.1-.258-.198-.333-.32-.17-.276.01-.49.283-.715.252-.208.532-.464.916-.599.034-.015.081-.066.13-.037z"/>
</svg>
