<svg xmlns="http://www.w3.org/2000/svg" width="355" height="422" viewBox="0 0 355 422">
    <g fill="none" fill-rule="evenodd">
        <g fill-rule="nonzero">
            <g>
                <path fill="#F0F0F0" d="M169.883 34.235v-6.886c-.115-.8-.633-1.483-1.37-1.809l-41.3-23.912c-2.003-1.018-4.371-1.018-6.375 0L2.125 70.29c-.744.33-1.263 1.023-1.37 1.83v6.886c.097.821.617 1.532 1.37 1.873l41.3 23.88c2.002 1.021 4.372 1.021 6.374 0l118.713-68.693c.741-.331 1.257-1.025 1.36-1.83h.011z" transform="translate(.625) translate(0 54.273)"/>
                <path fill="#FAFAFA" d="M2.125 73.96l41.3 23.88c2.002 1.022 4.372 1.022 6.374 0l118.713-68.66c1.754-1.064 1.754-2.66 0-3.672l-41.299-23.88c-2.003-1.018-4.371-1.018-6.375 0L2.125 70.29c-1.742 1.01-1.742 2.65 0 3.671z" transform="translate(.625) translate(0 54.273)"/>
                <path fill="#E0E0E0" d="M46.601 98.607v6.885c-1.11.019-2.207-.245-3.187-.766L2.125 80.878c-.742-.33-1.258-1.024-1.36-1.83V72.15c.022-.305.125-.599.297-.851-.488.894-.127 1.915 1.063 2.618l41.31 23.88c.967.54 2.059.82 3.166.809z" transform="translate(.625) translate(0 54.273)"/>
            </g>
            <g>
                <path fill="#E0E0E0" d="M94.892 1.5L129.763 21.805 129.763 88.657 94.892 68.363z" transform="translate(.625) translate(17)"/>
                <path fill="#FFF" d="M128.637 22.912L94.892 3.395c-2.059 2.204-4.764 3.695-7.724 4.256l33.468 19.443s2.157-.49 8-4.182z" transform="translate(.625) translate(17)"/>
                <path fill="#FAFAFA" d="M117.396 26.966c2.037 1.032 4.443 1.032 6.48 0l5.685-3.288c1.796-1.064 1.796-2.714 0-3.746L96.294.692l-1.402.808 32.714 19.039c.482.164.806.618.806 1.128 0 .51-.324.963-.806 1.128l-5.312 3.011c-1.226.622-2.674.622-3.9 0L85.722 6.8l-1.593.926 33.267 19.24z" transform="translate(.625) translate(17)"/>
                <path fill="#E0E0E0" d="M84.129 7.726v66.852l33.267 19.24c2.037 1.032 4.443 1.032 6.48 0l5.685-3.288c.752-.336 1.264-1.052 1.339-1.873V21.794c-.071.825-.584 1.547-1.339 1.884l-5.684 3.288c-2.038 1.032-4.444 1.032-6.481 0L84.129 7.726z" transform="translate(.625) translate(17)"/>
                <path fill="#EBEBEB" d="M120.636 27.743c1.13.024 2.245-.244 3.24-.777l5.685-3.288c.755-.337 1.268-1.059 1.339-1.884v66.863c-.075.82-.587 1.537-1.339 1.873l-5.684 3.288c-.998.528-2.112.795-3.24.777V27.743zM80.623 9.748L115.504 30.052 115.504 96.904 80.623 76.61z" transform="translate(.625) translate(17)"/>
                <path fill="#FFF" d="M114.378 31.16L80.623 11.641c-2.056 2.202-4.757 3.693-7.714 4.257l33.468 19.432s2.157-.511 8.001-4.172z" transform="translate(.625) translate(17)"/>
                <path fill="#FAFAFA" d="M103.126 35.214c2.042 1.032 4.45 1.032 6.492 0l5.684-3.289c1.785-1.064 1.785-2.713 0-3.746L82.036 8.94l-1.413.809 32.714 19.038c.482.165.806.618.806 1.128 0 .51-.324.963-.806 1.128l-5.313 3.012c-1.223.632-2.676.632-3.899 0L71.464 15.058l-1.594.915 33.256 19.24z" transform="translate(.625) translate(17)"/>
                <path fill="#EBEBEB" d="M69.87 15.963v66.862l33.256 19.23c2.042 1.032 4.45 1.032 6.492 0l5.684-3.289c.754-.333 1.267-1.05 1.34-1.873v-66.84c-.076.82-.588 1.537-1.34 1.872l-5.684 3.289c-2.039 1.042-4.453 1.042-6.492 0L69.87 15.963z" transform="translate(.625) translate(17)"/>
                <path fill="#F0F0F0" d="M106.377 35.99c1.111.015 2.208-.252 3.188-.776l5.737-3.289c.752-.335 1.264-1.052 1.34-1.873v66.852c-.073.822-.586 1.54-1.34 1.873l-5.684 3.288c-.98.524-2.076.792-3.187.778l-.053-66.853z" transform="translate(.625) translate(17)"/>
                <path fill="#E0E0E0" d="M69.031 52.932L69.031 56.327 74.184 58.955 74.184 55.305z" transform="translate(.625) translate(17)"/>
                <path fill="#FFF" d="M73.472 56.518L66.704 53.145 59.139 57.519 67.894 62.382z" transform="translate(.625) translate(17)"/>
                <path fill="#EBEBEB" d="M63.166 63.542v28.34c.058 1.154.672 2.21 1.647 2.83l27.019 15.622c.408.215.857.342 1.317.372L67.894 64.032c-.458-.029-.903-.156-1.307-.373l-1.817-1.064c-.892-.5-1.604-.085-1.604.947z" transform="translate(.625) translate(17)"/>
                <path fill="#F0F0F0" d="M69.817 63.66l4.133-4.566 3.666-2.129c.329-.532.733-.936.52-1.372l24.99 46.174v.054c.223.447.276 1.447-.33 1.787l-7.798 6.694c-.59.304-1.252.433-1.912.373L67.894 64.032c.663.062 1.33-.068 1.923-.373z" transform="translate(.625) translate(17)"/>
                <path fill="#FAFAFA" d="M77.616 55.103c.892.522.669 1.064 0 1.862l-7.8 6.694c-1.001.507-2.184.507-3.187 0l-6.853-3.97c-.892-.51-1.062-1.255-.35-1.66.934-.392 1.999-.317 2.868.203l5.409 3.192c.335.164.727.164 1.062 0l4.888-5.023c.128-.048.212-.171.212-.308 0-.137-.084-.26-.212-.309l-5.483-2.82c-.892-.521-1.063-1.266-.35-1.66.933-.393 1.998-.318 2.868.202l6.928 3.597z" transform="translate(.625) translate(17)"/>
                <path fill="#E0E0E0" d="M28.794 26.094L67.979 48.899 67.979 123.998 28.794 101.203z" transform="translate(.625) translate(17)"/>
                <path fill="#FFF" d="M66.714 50.144l-37.92-21.922c-2.31 2.474-5.347 4.144-8.67 4.768l37.602 21.826s2.422-.543 8.988-4.672z" transform="translate(.625) translate(17)"/>
                <path fill="#FAFAFA" d="M54.081 54.699c2.292 1.16 4.998 1.16 7.289 0l6.375-3.693c2.019-1.16 2.019-3.043 0-4.257L30.377 25.19l-1.583.905 36.752 21.39c.54.182.905.69.905 1.26 0 .572-.364 1.08-.905 1.262l-5.93 3.394c-1.374.703-3.002.703-4.377 0L18.5 32.053l-1.786 1.064L54.081 54.7z" transform="translate(.625) translate(17)"/>
                <path fill="#E0E0E0" d="M16.713 33.085v75.1l37.368 21.645c2.292 1.16 4.998 1.16 7.289 0l6.375-3.693c.849-.384 1.422-1.199 1.498-2.128V48.952c-.076.93-.65 1.745-1.498 2.129l-6.375 3.703c-2.291 1.16-4.997 1.16-7.289 0L16.713 33.085z" transform="translate(.625) translate(17)"/>
                <path fill="#EBEBEB" d="M57.726 55.571c1.267.025 2.521-.272 3.644-.862l6.375-3.703c.849-.384 1.422-1.199 1.498-2.128v75.099c-.076.93-.65 1.744-1.498 2.128l-6.375 3.693c-1.122.593-2.376.893-3.644.872V55.571zM12.782 35.363L51.956 58.168 51.956 133.267 12.782 110.472z" transform="translate(.625) translate(17)"/>
                <path fill="#FFF" d="M50.692 59.413L12.75 37.491c-2.305 2.475-5.339 4.15-8.66 4.778l37.613 21.826s2.423-.564 8.989-4.682z" transform="translate(.625) translate(17)"/>
                <path fill="#FAFAFA" d="M38.059 63.968c2.291 1.16 4.997 1.16 7.288 0l6.375-3.693c2.02-1.16 2.02-3.044 0-4.257l-37.357-21.56-1.594.905 36.752 21.39c.541.182.906.69.906 1.26 0 .572-.365 1.08-.906 1.262l-5.96 3.394c-1.376.698-3.002.698-4.378 0L2.486 41.322.691 42.386l37.368 21.582z" transform="translate(.625) translate(17)"/>
                <path fill="#EBEBEB" d="M.69 42.354v75.1l37.369 21.613c2.291 1.16 4.997 1.16 7.288 0l6.375-3.693c.85-.384 1.423-1.199 1.499-2.128V58.168c-.076.93-.65 1.744-1.498 2.128l-6.376 3.693c-2.288 1.171-5 1.171-7.288 0L.69 42.354z" transform="translate(.625) translate(17)"/>
                <path fill="#F0F0F0" d="M41.703 64.84c1.27.026 2.524-.275 3.644-.872l6.375-3.693c.85-.384 1.423-1.199 1.499-2.128v75.099c-.076.93-.65 1.744-1.498 2.128l-6.376 3.693c-1.122.593-2.375.893-3.644.872V64.84z" transform="translate(.625) translate(17)"/>
            </g>
        </g>
        <g>
            <path fill="#BA68C8" fill-rule="nonzero" d="M10.398 184.69l2.69-1.542-1.946-.866s-1.573.401-1.573.496c.01.354.046.708.106 1.057l.723.856z" transform="translate(38.625 130)"/>
            <path fill="#000" fill-rule="nonzero" d="M10.398 184.69l2.69-1.542-1.946-.866s-1.573.401-1.573.496c.01.354.046.708.106 1.057l.723.856z" opacity=".5" transform="translate(38.625 130)"/>
            <path fill="#70B0F3" fill-rule="nonzero" d="M112.877 235.995c-2.472 1.246-5.395 1.246-7.867 0l-88.34-50.713 132.228-75.869 3.093-1.775 88.329 50.713c2.126 1.247 2.126 3.276 0 4.512l-127.443 73.132z" transform="translate(38.625 130)"/>
            <path fill="#70B0F3" fill-rule="nonzero" d="M79.738 140.253l-30.832 17.623-19.945-11.442-23.199 13.323v16.608c0 2.018 2.276 4.881 3.105 4.416 1.528.368 3.014.892 4.433 1.564 2.307 1.31 4.448 2.888 6.38 4.702l70.775-40.603-10.717-6.19z" transform="translate(38.625 130)"/>
            <path fill="#000" fill-rule="nonzero" d="M79.292 140.517L48.459 158.14l-19.945-11.442-23.198 13.323v16.608c0 2.018 2.275 4.881 3.104 4.417 1.529.367 3.014.891 4.434 1.563 2.306 1.31 4.448 2.889 6.379 4.702l70.775-40.602-10.716-6.192z" opacity=".15" transform="translate(38.625 130)"/>
            <path fill="#000" fill-rule="nonzero" d="M7.442 177.01c0 1.89 1.988 4.522 2.924 4.458h.181c.063 0 2.806-1.733 3.104-1.775l2.669-8.758s-.16-10.238 0-10.238c-.512-1.475-1.105-2.921-1.776-4.332l-7.102 4.078v16.567z" opacity=".4" transform="translate(38.625 130)"/>
            <path fill="#70B0F3" fill-rule="nonzero" d="M105 235.995l-5.317-3.074-79.982-45.917c-.058-1.035-.429-2.03-1.064-2.852-.95-1.239-2.139-2.277-3.497-3.054-1.14-.698-2.438-1.102-3.775-1.172-.897-.01-1.771.276-2.487.813-1.013-2.026-1.506-4.268-1.436-6.53H4.36c0 4.153 1.382 8.316 3.073 9.277l1.53.888c.862.496 1.553.528 1.553.063v-.814c0-.898 1.371-.855 3.083.127 1.712.983 3.073 2.494 3.073 3.402v.803c0 .476 1.18 1.511 2.626 2.335l77.335 44.374 8.367 4.797c1.21.625 2.559.94 3.923.919v-3.476c-1.364.035-2.715-.278-3.923-.909z" transform="translate(38.625 130)"/>
            <path fill="#000" fill-rule="nonzero" d="M104.893 236.111l-5.316-3.074-79.983-45.916c-.057-1.036-.428-2.03-1.063-2.853-.95-1.239-2.14-2.277-3.498-3.053-1.14-.7-2.437-1.102-3.774-1.173-.897-.01-1.772.277-2.488.813-1.012-2.025-1.505-4.268-1.435-6.529H4.253c0 4.152 1.382 8.315 3.072 9.276l1.531.888c.861.496 1.552.528 1.552.063v-.813c0-.898 1.372-.856 3.084.126 1.711.983 3.072 2.494 3.072 3.402v.803c0 .476 1.18 1.511 2.626 2.335l77.336 44.374 8.367 4.797c1.21.625 2.559.941 3.923.919v-3.476c-1.364.035-2.715-.277-3.923-.909z" opacity=".3" transform="translate(38.625 130)"/>
            <path fill="#70B0F3" fill-rule="nonzero" d="M241.936 160.591v3.53c-.074.966-.668 1.819-1.552 2.228h-.064l-119.118 68.326-8.357 4.796c-1.21.624-2.559.94-3.923.92v-3.477c1.37.033 2.725-.287 3.934-.93l5.316-3.053 122.105-70.068c.943-.383 1.585-1.263 1.659-2.272z" transform="translate(38.625 130)"/>
            <path fill="#041C67" fill-rule="nonzero" d="M241.457 160.591v3.53c-.073.966-.667 1.819-1.552 2.228h-.064l-119.118 68.326-8.356 4.796c-1.211.624-2.56.94-3.923.92v-3.477c1.37.033 2.725-.287 3.934-.93l5.315-3.053L239.8 162.863c.942-.383 1.585-1.263 1.658-2.272z" opacity=".2" transform="translate(38.625 130)"/>
            <path fill="#EBEBEB" fill-rule="nonzero" d="M108.943 213.502v20.285c-.915.024-1.82-.191-2.626-.623l-9.685-5.547-73.806-42.356v-21.183l86.117 49.424z" transform="translate(38.625 130)"/>
            <path fill="#000" fill-rule="nonzero" d="M63.897 199.44l20.668 11.864s-2.126-2.218-10.334-6.867c-7.953-4.511-10.334-4.997-10.334-4.997z" opacity=".15" transform="translate(38.625 130)"/>
            <path fill="#F5F5F5" fill-rule="nonzero" d="M238.151 141.923v15.626c-.102 1.83-1.073 3.505-2.615 4.51l-114.334 65.558-9.675 5.547c-.802.43-1.704.645-2.615.623v-18.14l129.239-73.724z" transform="translate(38.625 130)"/>
            <path fill="#37474F" fill-rule="nonzero" d="M18.5 161.648v17.96c-.092-.063-.188-.12-.288-.168-1.132-.709-2.428-1.116-3.763-1.184-.894-.01-1.766.276-2.478.814v-21.13l6.528 3.708z" transform="translate(38.625 130)"/>
            <path fill="#E0E0E0" fill-rule="nonzero" d="M22.816 185.272c-.054-1.037-.425-2.032-1.063-2.853-.32-.44-.676-.854-1.064-1.236l-.372-.349-.478-.412-.404-.296c-.278-.211-.57-.405-.872-.58v-17.898l4.253 2.483v21.14z" transform="translate(38.625 130)"/>
            <path fill="#70B0F3" fill-rule="nonzero" d="M148.898 84.68L16.67 160.591v1.754c0 .983-1.372 1.342-3.073.37-1.701-.972-3.083-2.198-3.083-3.888l-.17-1.67L145.07 79.874l.542-.317c.144.248.224.528.234.814v.813c0 .94 1.361 2.504 3.052 3.497z" transform="translate(38.625 130)"/>
            <path fill="#1665D8" fill-rule="nonzero" d="M150.248 83.307L18.02 159.217v1.755c0 .982-1.372 1.341-3.073.37-1.7-.973-3.083-2.198-3.083-3.889l-.17-1.669L146.42 78.5l.543-.317c.143.248.223.527.233.813v.814c0 .94 1.361 2.504 3.052 3.497z" opacity=".1" transform="translate(38.625 130)"/>
            <path fill="#A8D3FF" fill-rule="nonzero" d="M105.01 211.241l-86.383-49.593c-1.063-.57-2.127-1.057-2.52-.814l.564-.306 132.227-75.88 1.552-.876c.85-.497 2.71-.222 4.167.612l85.66 49.203c2.127 1.257 2.127 3.285 0 4.522l-127.4 73.132c-2.472 1.246-5.395 1.246-7.867 0z" transform="translate(38.625 130)"/>
            <path fill="#70B0F3" fill-rule="nonzero" d="M145.655 79.524l-.542.317-134.768 77.285c-.068-.14-.166-.262-.287-.36l-.458-.253-.967-.56-1.19-.644c-.477-.317-1.11-.26-1.521.137-.063.033-.117.08-.16.137-.16.168-.295.356-.404.56-.144.237-.262.488-.35.75-.107.275-.192.571-.277.877-.085.307-.127.655-.191 1.057-.041.205-.066.414-.075.623v.497c0 .37-.053.76-.053 1.173v-3.762c0-2.113 1.776-4.775 3.945-6.022L135.81 78.204c2.18-1.247 5.316-1.458 7.017-.497l1.605.93c.107.074.383.222.68.39.227.11.415.282.543.497z" transform="translate(38.625 130)"/>
            <path fill="#70B0F3" fill-rule="nonzero" d="M105.031 211.304l-5.316-3.074-61.44-35.288-19.648-11.294c-1.393-.814-2.53-1.057-2.605-.687-.005.017-.005.036 0 .053v.887c0 .972-1.382.972-3.083 0-1.701-.972-2.392-2.113-2.414-3.074v-.962c.032-.43-.136-.85-.457-1.14l-.457-.254-.967-.56-1.202-.602c-.476-.317-1.11-.26-1.52.137-.063.033-.117.08-.16.137-.106.106-.195.227-.265.36-.056.06-.103.127-.139.2-.144.237-.262.488-.35.75-.107.275-.192.571-.277.877-.085.307-.127.655-.191 1.057-.041.205-.066.414-.075.623v.497c0 .37-.053.76-.053 1.173v13.185h3.03v-13.28-.93l.075-.761c-.008-.024-.008-.05 0-.074.265 2.398 2.573 4.533 4.571 5.663 1.11.691 2.381 1.084 3.69 1.141.995.01 1.96-.343 2.71-.993l.277.148.532.317 77.335 44.374 8.367 4.796h.053c1.198.607 2.527.911 3.87.888v-3.476c-1.345.055-2.682-.225-3.891-.814z" transform="translate(38.625 130)"/>
            <path fill="#000" fill-rule="nonzero" d="M104.871 211.508l-5.315-3.074-61.441-35.288-19.648-11.294c-1.392-.814-2.53-1.057-2.604-.687-.005.017-.005.036 0 .053v.887c0 .972-1.383.972-3.084 0-1.7-.972-2.392-2.113-2.413-3.074v-.961c.032-.43-.137-.851-.457-1.142l-.457-.253-.968-.56-1.201-.602c-.476-.317-1.11-.26-1.52.137-.063.034-.118.08-.16.137-.106.106-.196.227-.266.36-.055.06-.102.127-.138.2-.144.237-.262.488-.35.75-.107.275-.192.571-.277.877-.085.307-.128.655-.192 1.057-.04.206-.066.414-.074.623v.497c0 .37-.053.76-.053 1.173v13.185h3.03v-13.28-.93l.074-.76c-.008-.025-.008-.05 0-.075.266 2.398 2.573 4.533 4.572 5.663 1.11.691 2.38 1.084 3.689 1.141.996.01 1.96-.343 2.711-.993l.277.148.531.317 77.335 44.374 8.368 4.796h.053c1.197.607 2.526.911 3.87.888v-3.476c-1.345.055-2.683-.225-3.892-.814z" opacity=".3" transform="translate(38.625 130)"/>
            <path fill="#000" fill-rule="nonzero" d="M154.617 84.416c-1.456-.835-3.317-1.11-4.167-.613l-1.542.877c-1.7-.993-3.062-2.557-3.062-3.529v-.855c-.01-.286-.09-.566-.234-.814-.104-.222-.27-.409-.478-.539-.298-.169-.574-.317-.68-.39l-1.606-.93c-1.701-.962-4.837-.75-7.017.496L8.303 151.241l-.138.095L98.216 203c1.647.83 3.594.83 5.241 0l128.315-74.326-77.155-44.258z" opacity=".1" transform="translate(38.625 130)"/>
            <path fill="#70B0F3" fill-rule="nonzero" d="M241.936 135.805v3.54c-.078.965-.67 1.816-1.552 2.229h-.064L121.202 209.92l-8.357 4.797c-1.212.62-2.56.932-3.923.909v-3.476c1.37.032 2.725-.288 3.934-.93l5.316-3.054 122.105-70.057c.954-.386 1.6-1.282 1.659-2.304z" transform="translate(38.625 130)"/>
            <path fill="#000" fill-rule="nonzero" d="M241.457 136.291v3.54c-.078.965-.67 1.816-1.552 2.229h-.064l-119.118 68.346-8.356 4.797c-1.212.62-2.56.932-3.923.909v-3.476c1.37.032 2.725-.288 3.934-.93l5.315-3.054L239.8 138.595c.954-.386 1.599-1.282 1.658-2.304z" opacity=".2" transform="translate(38.625 130)"/>
            <path fill="#000" fill-rule="nonzero" d="M91.008 195.541l3.412-1.955c-.919-.315-1.905-.384-2.86-.2-.903.422-.552 2.155-.552 2.155z" transform="translate(38.625 130)"/>
            <path fill="#1665D8" fill-rule="nonzero" d="M88.669 193.407c.78-.847 1.88-1.329 3.035-1.329 1.155 0 2.256.482 3.035 1.329 3.318 3.022 3.488 6.022 4.86 5.97 1.37-.054 1.403-24.153 1.403-24.153L87.935 187.3l.734 6.107z" transform="translate(38.625 130)"/>
            <path fill="#DBE9F7" fill-rule="nonzero" d="M225.375 105.484l.213-.116-2.126-1.204-90.168-51.77L1.907 136.926c-2.127 1.247-2.562 3.043-.861 4.015l3.072 1.754 84.289 48.378.595-.423 136.373-85.166z" transform="translate(38.625 130)"/>
            <path fill="#ADD1F7" fill-rule="nonzero" d="M100.164 166.654l-6.528-1.342v25.98c3.934 1.659 6.443 3.223 6.858 6.498l-.33-31.136z" transform="translate(38.625 130)"/>
            <path fill="#EBEBEB" fill-rule="nonzero" d="M90.476 188.79l-83.49-47.903c-1.55-1.006-2.526-2.685-2.627-4.522v-25.6l84.31 48.77s1 3.624 3.987 4.765c2.987 1.14.712 2.292.712 2.292v21.839c-2.584-.286-2.892.359-2.892.359z" transform="translate(38.625 130)"/>
            <path fill="#426FCF" fill-rule="nonzero" d="M97.607 163.662c-.872-.496-1.552-.528-1.552-.063v.813c0 .898-1.372.856-3.084-.126-1.711-.983-3.093-2.494-3.093-3.392v-.813c0-.476-1.16-1.511-2.605-2.335l135.852-77.348 2.126 1.204c.285.31.464.703.51 1.12v.814c0 .908 1.383 2.42 3.084 3.402 1.701.982 3.083 1.056 3.083.116v-.803c0-.476.68-.444 1.542.053L97.607 163.662z" transform="translate(38.625 130)"/>
            <path fill="#C2DBF5" fill-opacity=".661" fill-rule="nonzero" d="M225.375 81.105l.213-.127-2.126-1.205-90.168-51.77L1.907 103.44c-2.127 1.247-2.562 3.043-.861 4.015l3.072 1.765 70.618 42.227 13.713 8.2 136.926-78.541z" transform="translate(38.625 130)"/>
            <path fill="#4C94FD" fill-rule="nonzero" d="M232.516 84.722L96.75 162.6l4.752 3.698 135.3-77.634c-.332-.998-.963-1.871-1.808-2.504l-2.477-1.437z" transform="translate(38.625 130)"/>
            <path fill="#ADCDFB" fill-rule="nonzero" d="M236.251 123.404c.088-.047.17-.104.245-.17.062-.033.117-.08.16-.137.105-.106.195-.227.265-.359.056-.06.102-.127.138-.2.144-.237.262-.489.351-.75.106-.276.191-.571.276-.878.085-.306.128-.655.192-1.056.04-.206.066-.414.074-.624v-.496c0-.37.054-.76.054-1.173v-22.24c.015-2.323-.415-4.629-1.266-6.793L101.483 166.16l-.574 34.865 135.3-77.548.042-.074z" transform="translate(38.625 130)"/>
            <path fill="#000" fill-rule="nonzero" d="M101.522 166.297s106.562-49.562 116.259-54.105c6.379-3 9.568 3.296 8.027 9.815-1.33 5.695-6.975 11.558-6.975 11.558l17.415-9.952c.088-.047.17-.103.244-.169.063-.033.118-.08.16-.137.106-.106.196-.227.266-.36.055-.06.102-.127.138-.2.144-.237.262-.488.35-.75.107-.275.192-.571.277-.877.085-.307.128-.655.192-1.057.04-.205.066-.414.074-.623v-.497c0-.37.054-.76.054-1.173V95.457c.015-2.324-.415-4.63-1.266-6.794l-135.215 77.634z" opacity=".1" transform="translate(38.625 130)"/>
            <path fill="#55A3F6" fill-rule="nonzero" d="M102.777 173.09h-3.03c.067-2.278-.437-4.536-1.467-6.572-.716.537-1.591.823-2.488.814-1.334-.069-2.629-.472-3.764-1.173-1.362-.77-2.552-1.81-3.497-3.053-.066-.088-.126-.18-.181-.275-.544-.756-.861-1.65-.915-2.578L7.442 114.38l-2.71-1.574-3.467-1.986c-.614-.28-1.022-.873-1.063-1.543v-3.529c.03.686.44 1.3 1.063 1.596l9.186 5.282L87.786 157c1.436.824 2.616 1.86 2.616 2.324v.814c.07.544.32 1.05.712 1.437.684.804 1.513 1.474 2.445 1.976 1.712.982 3.094 1.056 3.094.126v-.813c0-.465.68-.444 1.542.053l1.53.887c1.67 1.014 3.052 5.135 3.052 9.287z" transform="translate(38.625 130)"/>
            <path fill="#55A3F6" fill-rule="nonzero" d="M99.747 173.09v23.223l-.074.75c.005.024.005.049 0 .073-.277-2.387-2.573-4.522-4.572-5.652-1.113-.695-2.387-1.092-3.7-1.152-.995-.008-1.96.345-2.711.994l-.276-.148-.521-.317-77.336-44.374-4.444-2.546c-.404-.233-.85-.476-1.265-.73l-3.742-2.113c-.507-.311-.822-.855-.84-1.447v3.518c.024.552.312 1.059.776 1.363.436.264.904.518 1.382.803l.861.497 1.478.855c.34.201.638.38.925.529l.649.38 1.137.655 61.44 35.235 19.606 11.252c1.393.814 2.53 1.057 2.605.676v-.929c0-.983 1.371-.983 3.072 0 1.701.982 2.392 2.113 2.424 3.063v.962c-.034.431.13.855.447 1.151l.457.254c.276.148.606.349.967.56l1.202.687c.48.314 1.115.257 1.53-.138.057-.033.108-.076.15-.126.106-.113.199-.237.276-.37.049-.055.092-.116.128-.18.144-.236.262-.488.35-.75.11-.286.202-.58.277-.877.074-.327.138-.665.191-1.056.047-.201.072-.407.075-.613v-.497-23.465h-2.924z" transform="translate(38.625 130)"/>
            <path fill="#000" fill-rule="nonzero" d="M236.822 88.653l-128.59 73.787-97.207-55.731c-1.456-.824-1.456-2.177 0-3.011l127.251-73.059 85.416 49.023 2.126 1.215c.274.293.452.66.51 1.056v.814c0 .908 1.383 2.43 3.073 3.402.088.054.18.1.277.137l2.828-1.627 1.35.771.18.085 1 .57c.842.658 1.464 1.553 1.786 2.568z" opacity=".1" transform="translate(38.625 130)"/>
            <path fill="#BA68C8" fill-rule="nonzero" d="M18.265 107.226l3.87-2.05-3.53-.844c-.681.812-.815 1.948-.34 2.894z" transform="translate(38.625 130)"/>
            <path fill="#000" fill-rule="nonzero" d="M18.265 107.226l3.87-2.05-3.53-.844c-.681.812-.815 1.948-.34 2.894z" opacity=".5" transform="translate(38.625 130)"/>
            <path fill="#70B0F3" fill-rule="nonzero" d="M120.755 158.478c-2.472 1.246-5.395 1.246-7.867 0l-88.329-50.713 132.227-74.643 3.094-1.775 88.329 49.456c2.126 1.246 2.126 3.275 0 4.511l-127.454 73.164z" transform="translate(38.625 130)"/>
            <path fill="#B2D6FC" fill-rule="nonzero" d="M87.595 64.015L56.763 81.637 36.828 70.195l-23.177 13.27V98.89c0 2.018 2.275 4.882 3.094 4.417 1.528.367 3.014.891 4.433 1.563 2.308 1.31 4.45 2.887 6.38 4.702l70.775-39.377-10.738-6.18z" transform="translate(38.625 130)"/>
            <path fill="#000" fill-rule="nonzero" d="M88.828 66.56L57.996 84.185 38.062 72.742l-23.178 13.27v15.425c0 2.018 2.276 4.88 3.094 4.416 1.528.367 3.014.892 4.434 1.564 2.307 1.308 4.449 2.887 6.379 4.701l70.775-39.376-10.738-6.181z" opacity=".15" transform="translate(38.625 130)"/>
            <path fill="#37474F" fill-rule="nonzero" d="M33.118 87.205v16.704c-.085-.061-.174-.118-.266-.17-1.142-.7-2.444-1.103-3.785-1.172-.871-.088-1.747.116-2.488.581V83.465l6.539 3.74z" transform="translate(38.625 130)"/>
            <path fill="#E0E0E0" fill-rule="nonzero" d="M30.843 110.016c-.066-1.034-.435-2.026-1.063-2.853-.32-.44-.675-.854-1.064-1.236l-.372-.349-.489-.412-.404-.296c-.28-.208-.571-.402-.872-.58V87.69l4.317 2.483v-.084l-.053 19.926z" transform="translate(38.625 130)"/>
            <path fill="#EBEBEB" fill-rule="nonzero" d="M116.822 137.253v19.017c-.911.026-1.813-.186-2.616-.613l-9.696-5.557-73.806-42.335V87.84l86.118 49.414z" transform="translate(38.625 130)"/>
            <path fill="#000" fill-rule="nonzero" d="M36.286 100.602l20.658 11.854s-2.127-2.219-10.324-6.857c-7.963-4.511-10.334-4.997-10.334-4.997z" opacity=".15" transform="translate(38.625 130)"/>
            <path fill="#F5F5F5" fill-rule="nonzero" d="M245.997 65.684v14.39c-.101 1.834-1.077 3.51-2.626 4.511L129.122 150.09l-9.674 5.558c-.807.428-1.712.64-2.626.613v-16.8l129.175-73.776z" transform="translate(38.625 130)"/>
            <path fill="#BA68C8" fill-rule="nonzero" d="M156.786 8.452L24.56 84.31v1.765c0 .982-1.382 1.342-3.072.359-1.69-.983-3.094-2.198-3.094-3.877l-.16-1.67L152.96 3.592l.542-.317c.138.25.215.529.223.814v.813c0 .983 1.372 2.546 3.062 3.55z" transform="translate(38.625 130)"/>
            <path fill="#70B0F3" d="M156.786 8.452L24.56 84.31v1.765c0 .982-1.382 1.342-3.072.359-1.69-.983-3.094-2.198-3.094-3.877l-.16-1.67L152.96 3.592l.542-.317c.138.25.215.529.223.814v.813c0 .983 1.372 2.546 3.062 3.55z" transform="translate(38.625 130)"/>
            <path fill="#CFE9FD" d="M112.888 134.992L26.516 85.44c-1.064-.57-2.127-1.057-2.52-.814l.563-.317L156.786 8.452l1.542-.887c.861-.486 2.722-.212 4.168.612l85.713 49.182c2.126 1.246 2.126 3.275 0 4.51l-127.454 73.123c-2.472 1.246-5.395 1.246-7.867 0z" transform="translate(38.625 130)"/>
            <path fill="#FFF" fill-rule="nonzero" d="M160.476 29.583l47.757 27.47c2.02 1.161 2.02 3.053 0 4.225l-6.432 3.688c-2.31 1.161-5.037 1.161-7.346 0l-47.737-27.449c-2.03-1.162-2.03-3.053 0-4.226l6.38-3.687c2.313-1.183 5.057-1.19 7.378-.021z" transform="translate(38.625 130)"/>
            <path fill="#FFF" fill-rule="nonzero" d="M109.624 126.191c-.149.003-.296-.034-.425-.106L44.345 88.97c-.265-.15-.43-.431-.43-.735 0-.303.165-.584.43-.734 1.222-.705 1.973-2.003 1.973-3.407s-.751-2.702-1.973-3.407c-.266-.148-.43-.427-.425-.73-.001-.3.161-.58.425-.728l108.316-62.145c.264-.149.587-.149.85 0 4.2 2.404 9.368 2.404 13.567 0 .264-.149.587-.149.85 0l64.78 37.168c.259.154.42.43.425.73 0 .3-.163.578-.425.728-1.222.706-1.974 2.004-1.974 3.408s.752 2.702 1.974 3.407c.262.15.425.428.425.729-.005.3-.166.575-.425.729l-108.263 62.092c-.264.149-.587.149-.851 0-4.193-2.398-9.352-2.398-13.545 0-.13.074-.276.114-.425.116zM46.259 88.156l63.376 36.25c4.492-2.378 9.881-2.378 14.374 0l106.7-61.247c-1.1-1.06-1.72-2.519-1.72-4.041 0-1.523.62-2.981 1.72-4.042l-63.26-36.291c-4.503 2.378-9.901 2.378-14.405 0L46.259 80.063c1.1 1.06 1.72 2.519 1.72 4.041 0 1.523-.62 2.981-1.72 4.042v.01z" transform="translate(38.625 130)"/>
            <path fill="#CFE9FD" d="M153.501 3.275l-.542.317L18.233 80.887c-.07-.144-.171-.27-.297-.37l-.447-.253-.967-.56c-.372-.2-.776-.444-1.202-.687-.48-.314-1.115-.257-1.53.138-.06.034-.11.08-.15.137-.16.164-.295.349-.403.55-.147.238-.265.494-.351.76-.111.282-.204.572-.277.866-.074.328-.138.666-.191 1.057-.046.201-.071.406-.075.613v1.669-3.761c0-2.113 1.776-4.765 3.934-6.012L143.741 1.891c2.126-1.247 5.316-1.458 7.006-.496l1.606.94h.064c.106.074.382.222.68.39.182.144.322.334.404.55z" transform="translate(38.625 130)"/>
            <path fill="#C6E2F7" fill-rule="nonzero" d="M112.888 158.478l-5.316-3.074-79.93-45.843c-.059-1.032-.429-2.022-1.063-2.842-.945-1.243-2.135-2.282-3.497-3.053-1.16-.716-2.485-1.124-3.85-1.183-.896-.011-1.772.275-2.487.813-1.03-2.036-1.534-4.294-1.467-6.571h-3.03c0 4.152 1.382 8.314 3.072 9.276l1.531.887c.861.497 1.542.529 1.542.064v-.814c0-.898 1.382-.856 3.094.127 1.711.983 3.072 2.557 3.072 3.402v.813c0 .476 1.18 1.511 2.616 2.335l77.335 44.374 8.378 4.807c1.21.624 2.559.94 3.923.92v-3.476c-1.37.02-2.72-.31-3.923-.962z" transform="translate(38.625 130)"/>
            <path fill="#000" fill-rule="nonzero" d="M113.398 158.954l-5.316-3.075-79.93-45.842c-.058-1.032-.429-2.023-1.062-2.842-.945-1.244-2.136-2.283-3.498-3.054-1.16-.716-2.485-1.123-3.849-1.183-.897-.01-1.772.275-2.488.814-1.03-2.036-1.534-4.294-1.467-6.572h-3.03c0 4.152 1.382 8.315 3.073 9.276l1.53.888c.862.496 1.542.528 1.542.063v-.813c0-.898 1.382-.856 3.094.126 1.712.983 3.073 2.557 3.073 3.402v.814c0 .475 1.18 1.51 2.615 2.335l77.335 44.374 8.378 4.807c1.211.624 2.56.94 3.923.92v-3.477c-1.369.021-2.72-.31-3.923-.961z" opacity=".3" transform="translate(38.625 130)"/>
            <path fill="#70B0F3" d="M112.92 135.013l-5.316-3.064-61.441-35.224L26.516 85.44c-1.393-.814-2.53-1.057-2.605-.676v.887c0 .983-1.372.983-3.073 0-1.7-.982-2.392-2.113-2.424-3.064v-.961c.037-.434-.132-.86-.457-1.152l-.447-.253c-.276-.148-.606-.349-.967-.56-.361-.212-.776-.444-1.201-.687-.48-.315-1.116-.258-1.531.137-.06.034-.11.081-.15.138-.109.105-.202.226-.276.359-.05.057-.093.121-.127.19-.147.24-.265.494-.351.76-.111.283-.204.573-.276.867-.075.328-.139.666-.192 1.057-.046.2-.071.406-.074.612v13.63h3.03v-11.95-.93l.074-.75c-.005-.024-.005-.05 0-.074.277 2.388 2.573 4.533 4.572 5.653 1.093.675 2.34 1.064 3.625 1.13.996.009 1.96-.344 2.711-.993l.266.148.532.317 77.335 44.374 8.378 4.797h.064c1.195.602 2.52.907 3.859.887v-3.476c-1.348.043-2.685-.247-3.891-.845z" transform="translate(38.625 130)"/>
            <path fill="#000" fill-rule="nonzero" d="M113.313 135.48l-5.316-3.065-61.44-35.224-19.648-11.284c-1.393-.813-2.53-1.056-2.605-.676v.888c0 .982-1.371.982-3.072 0-1.701-.983-2.393-2.113-2.424-3.064v-.962c.036-.433-.133-.86-.458-1.151l-.446-.254c-.277-.148-.606-.348-.968-.56-.361-.211-.776-.444-1.201-.687-.48-.314-1.115-.257-1.531.138-.06.034-.11.08-.149.137-.11.106-.202.227-.276.36-.051.057-.094.12-.128.19-.146.239-.264.494-.35.76-.112.283-.204.572-.277.867-.075.327-.138.665-.191 1.056-.047.201-.072.407-.075.613V97.19h3.03v-11.95-.929l.075-.75c-.006-.024-.006-.05 0-.074.276 2.388 2.572 4.532 4.571 5.652 1.093.676 2.34 1.065 3.626 1.13.995.01 1.96-.344 2.71-.992l.267.148.531.317 77.335 44.373 8.378 4.797h.064c1.195.603 2.52.907 3.86.888v-3.476c-1.348.043-2.685-.248-3.892-.846z" opacity=".3" transform="translate(38.625 130)"/>
            <path fill="#70B0F3" d="M249.846 59.567v3.528c-.076.97-.674 1.823-1.563 2.23h-.053l-119.076 68.314-8.356 4.808c-1.21.625-2.56.94-3.923.919v-3.476c1.373.032 2.732-.288 3.944-.93l5.316-3.053 122.116-70.09c.91-.4 1.523-1.265 1.595-2.25z" transform="translate(38.625 130)"/>
            <path fill="#000" fill-rule="nonzero" d="M249.92 124.67v3.528c-.076.97-.674 1.823-1.563 2.23h-.053L129.23 198.742l-8.357 4.807c-1.21.626-2.559.942-3.923.92v-3.476c1.374.032 2.732-.288 3.945-.93l5.315-3.053 122.117-70.09c.909-.4 1.522-1.265 1.594-2.25z" opacity=".2" transform="translate(38.625 130)"/>
            <path fill="#CFE9FD" fill-rule="nonzero" d="M249.846 83.085v3.55c-.076.97-.674 1.822-1.563 2.229h-.053l-119.076 68.315-8.356 4.807c-1.21.625-2.56.941-3.923.92v-3.477c1.373.033 2.732-.288 3.944-.93l5.316-3.053 122.116-70.079c.917-.407 1.532-1.286 1.595-2.282z" transform="translate(38.625 130)"/>
            <path fill="#000" fill-rule="nonzero" d="M249.92 83.465v3.55c-.076.97-.674 1.823-1.563 2.23h-.053L129.23 157.558l-8.357 4.807c-1.21.626-2.559.941-3.923.92v-3.477c1.374.033 2.732-.287 3.945-.93l5.315-3.053 122.117-70.079c.917-.406 1.531-1.286 1.594-2.282z" opacity=".2" transform="translate(38.625 130)"/>
            <path fill="#70B0F3" d="M39.731 102.578L39.731 149.994 46.62 142.092 53.51 157.897 53.51 110.48z" transform="translate(38.625 130)"/>
            <path fill="#1665D8" fill-rule="nonzero" d="M39.337 102.483L39.337 149.899 46.227 141.997 53.116 157.802 53.116 110.385z" opacity=".5" transform="translate(38.625 130)"/>
            <path fill="#70B0F3" fill-rule="nonzero" d="M67.278 201.362v12.869c0 4.263-2.29 8.203-6.007 10.333l-18.074 10.385 17.213-1.975-3.445 9.878 18.074-10.386c3.713-2.133 6.002-6.07 6.007-10.332v-12.869l-13.768-7.903z" transform="translate(38.625 130)"/>
            <path fill="#1665D8" fill-rule="nonzero" d="M67.671 200.74v12.868c0 4.263-2.29 8.202-6.007 10.332L43.59 234.326l17.213-1.976-3.445 9.879 18.074-10.386c3.714-2.133 6.003-6.07 6.007-10.333v-12.868l-13.768-7.903z" opacity=".5" transform="translate(38.625 130)"/>
        </g>
        <g fill-rule="nonzero">
            <path fill="#FBCACA" d="M82.547 89.85c14.806-.496 22.152 7.12 31.118 20.076 8.966 12.956 33.675 48.875 33.675 48.875l-19.226 11.112-42.094-57.796-3.473-22.268z" transform="translate(153.625 106)"/>
            <path fill="#5A666C" fill-opacity=".628" d="M68.536.334c-31.062 1.503-43.629 25.505-39.318 47.47 3.742 19.048 18.464 29.353 38.525 29.353h2.51c21.83 0 36.36-21.758 39.044-33.487C115.581 16.434 96.069-.99 68.536.334z" transform="translate(153.625 106)"/>
            <path fill="#9DBDD5" fill-opacity=".744" d="M148.456 297.535c.79 19.455-31.055 23.268-59.027 9.912-21.1-10.07-30.518-17.338-49.724-31.684-23.793-17.812-30.928-44.788-13.954-76.83l80.937-4.214c14.09 16.348 64.846 38.068 81.684 76.704 8.177 20.424-19.91 31.179-39.99 26.112h.074z" transform="translate(153.625 106)"/>
            <path fill="#37474F" fill-opacity=".385" d="M148.456 297.535c-2.105-18.338-16.049-27.387-28.014-36.266C108.477 252.389 83.336 237 83.336 237s12.502 2.918 23.973-8.89c-.71 5.133-3.664 9.684-8.061 12.419 0 0 34.801 19.918 45.251 36.803 3.805 5.999 5.217 13.21 3.957 20.203z" transform="translate(153.625 106)"/>
            <path fill="#70B0F3" d="M62.941 89.85h-9.27c-8.977.631-17.89 1.327-17.89 1.327-14.376 5.192-14.313 16.537-15.029 22.488-1.052 8.427 1.326 13.23 4.094 21.235l13.26 38.384s-5.136 11.46-12.344 25.649c33.275 18.58 73.738 12.376 83.736-1.19.42-2.876-1.053-33.318-2.673-48.012 9.64-7.679 11.46-21.626 4.114-31.526-12.512-17.117-23.899-27.44-28.413-28.356H62.94z" transform="translate(153.625 106)"/>
            <path fill="#000" d="M64.543 91.64h-9.271c-8.977.632-17.89 1.327-17.89 1.327-14.376 5.193-14.313 16.538-15.028 22.489-1.052 8.427 1.326 13.23 4.094 21.235l13.26 38.384s-5.136 11.46-12.345 25.648c33.276 18.581 73.739 12.377 83.736-1.19.421-2.876-1.052-33.317-2.673-48.011 9.64-7.68 11.46-21.626 4.115-31.526-12.513-17.117-23.9-27.44-28.414-28.356H64.543z" opacity=".106" transform="translate(153.625 106)"/>
            <path fill="#000" d="M35.401 179.13c-1.136 2.444-2.61 5.55-4.325 9.07-.295.62-.6 1.253-.915 1.885-.39.8-.79 1.622-1.21 2.454-1.053 2.043-2.105 4.213-3.158 6.394 1.232.684 2.473 1.316 3.715 1.938 22.268 11.08 47.061 11.639 63.573 6.688-11.224 1.494-22.623.998-33.676-1.464-5.263-1.214-9.817-4.498-12.634-9.112-2.817-4.613-3.66-10.167-2.34-15.41.086-.358.199-.71.336-1.053 2.105-5.15 6.746-4.476 6.746-4.476-4.33-2.846-7.342-7.306-8.366-12.388l-1.747-5.34c-4.012-12.133-4.218-25.204-.59-37.457l.095-.347-14.144-8.069-2.473 1.717c-.772 2.492-1.225 5.073-1.347 7.68V124.787c0 .57.064 1.127.116 1.686.053.558.084.895.147 1.337.064.443.127.948.21 1.422.085.474.222 1.149.348 1.717.084.359.148.727.242 1.054.242.937.516 1.875.832 2.791l13.26 38.384s-.98 2.296-2.695 5.95z" opacity=".15" transform="translate(153.625 106)"/>
            <path fill="#FBCACA" d="M96.29 15.231c2.105 1.054 7.799 11.956 7.251 35.687-.463 20.119-6.977 25.08-10.25 26.513-3.272 1.432-9.576.558-15.711-.464v12.071s8.482 9.86 7.945 15.39c-.537 5.53-12.239 6.846-20.163 1.443-5.142-3.705-9.556-8.33-13.018-13.641V63.053s-3.346 3.676-10.123-.822c-6.778-4.498-7.82-13.788-3.884-17.79 3.936-4.004 12.429-2.729 14.007 2.79 0 0 9.934 1.76 23.257-6.825 14.386-9.27 18.816-16.643 20.69-25.175z" transform="translate(153.625 106)"/>
            <path fill="#465A64" d="M99.574 37.72l-5.62-2.686c.317-.756.93-1.349 1.696-1.64.766-.29 1.618-.253 2.356.102 1.565.764 2.255 2.623 1.568 4.224zM74.507 34.507l-5.262 3.318c-.46-.668-.628-1.495-.466-2.29.163-.796.643-1.49 1.329-1.923 1.47-.925 3.406-.53 4.399.895z" transform="translate(153.625 106)"/>
            <path fill="#37474F" fill-opacity=".559" d="M52.113 41.69l.347 12.304c1.632.038 3.208-.595 4.361-1.751 1.154-1.157 1.783-2.736 1.743-4.369-.152-3.456-2.995-6.18-6.451-6.183z" transform="translate(153.625 106)"/>
            <path fill="#465A64" d="M78.853 45.093c.01 1.382-1.091 2.516-2.472 2.546-1.38.03-2.528-1.056-2.578-2.438-.049-1.38 1.02-2.546 2.398-2.615.685-.022 1.35.23 1.848.7.498.471.788 1.122.804 1.807z" transform="translate(153.625 106)"/>
            <path fill="#F7B6B6" d="M81.031 62.895L87.693 65c-.242.904-.84 1.67-1.659 2.12-.818.452-1.785.55-2.677.271-1.855-.631-2.882-2.616-2.326-4.497z" transform="translate(153.625 106)"/>
            <path fill="#465A64" d="M98.395 44.04c.01 1.382-1.09 2.516-2.471 2.545-1.38.03-2.529-1.056-2.578-2.437-.05-1.381 1.018-2.546 2.397-2.615.685-.023 1.35.23 1.848.7s.788 1.121.804 1.807z" transform="translate(153.625 106)"/>
            <path fill="#F7B6B6" d="M86.051 42.586L86.462 57.817 94.459 55.332z" transform="translate(153.625 106)"/>
            <path fill="#FFB3B3" fill-opacity=".809" d="M77.58 76.967c-6.462-.843-19.753-4.666-21.826-9.933 0 0 .694 3.308 4.662 6.72 3.967 3.413 17.164 7.247 17.164 7.247v-4.034z" transform="translate(153.625 106)"/>
            <path fill="#BA68C8" d="M171.84 132.457s-.253-3.708 4.63-7.321c4.883-3.613 11.26-6.51 13.343-15.484l6.725 3.887-11.323 19.065-13.376-.147z" transform="translate(153.625 106)"/>
            <path fill="#FFF" d="M171.84 132.457s-.253-3.708 4.63-7.321c4.883-3.613 11.26-6.51 13.343-15.484l6.725 3.887-11.323 19.065-13.376-.147z" opacity=".75" transform="translate(153.625 106)"/>
            <path fill="#BA68C8" d="M171.84 132.457s-7.367-3.687-23.458-.358c-16.09 3.328-29.266 7.636-60.205 6.952l8.03 4.645 80.326-4.656-4.694-6.583z" transform="translate(153.625 106)"/>
            <path fill="#FFF" d="M171.84 132.457s-7.367-3.687-23.458-.358c-16.09 3.328-29.266 7.636-60.205 6.952l8.03 4.645 80.326-4.656-4.694-6.583z" opacity=".75" transform="translate(153.625 106)"/>
            <path fill="#BA68C8" d="M88.177 139.051L59.458 231.565 67.488 236.21 96.206 143.696z" transform="translate(153.625 106)"/>
            <path fill="#FFF" d="M88.177 139.051L59.458 231.565 67.488 236.21 96.206 143.696z" opacity=".8" transform="translate(153.625 106)"/>
            <path fill="#000" d="M87.306 139.04L58.587 231.554 66.617 236.199 95.336 143.685z" opacity=".1" transform="translate(153.625 106)"/>
            <g fill="#000" opacity=".1">
                <path d="M70.887.864c-.752 1.933-1.875 3.7-3.305 5.203-1.443 1.504-2.982 2.911-4.609 4.214-1.637 1.224-3.152 2.603-4.525 4.118-.645.744-1.19 1.569-1.62 2.454-.408.85-.606 1.786-.58 2.728l-.978.148c-.019-1.13.25-2.246.778-3.244.484-.955 1.093-1.84 1.81-2.634 1.46-1.488 3.06-2.832 4.778-4.013 1.658-1.218 3.24-2.537 4.736-3.95 1.485-1.431 2.68-3.137 3.515-5.024zM69.603 6.078c-.686 1.155-1.517 2.217-2.473 3.16-.926.98-1.873 1.917-2.778 2.907-.906.973-1.717 2.032-2.42 3.16-.692 1.077-1.124 2.299-1.264 3.57l-.989-.126c.248-1.391.805-2.709 1.631-3.855.799-1.102 1.701-2.125 2.694-3.055.968-.937 1.979-1.822 2.947-2.738 1.01-.89 1.902-1.905 2.652-3.023zM.2 25.975c4.396-.4 8.766-1.043 13.091-1.927 4.336-.875 8.62-1.95 12.923-2.95 4.316-1.055 8.734-1.63 13.176-1.717 2.23-.07 4.464.018 6.682.264 1.12.123 2.228.334 3.315.632 1.152.286 2.23.817 3.157 1.559l-.684.716c-.802-.648-1.73-1.122-2.725-1.39-1.035-.298-2.09-.52-3.158-.664-2.17-.28-4.357-.406-6.545-.38-4.415 0-8.817.492-13.123 1.465-4.315.916-8.63 1.917-12.976 2.707C8.99 25.093 4.605 25.655.2 25.975zM21.436 25.575c2.495-.337 4.947-.853 7.42-1.327s4.946-.927 7.44-1.254c2.505-.369 5.035-.538 7.566-.505 2.576-.004 5.13.467 7.535 1.39l-.4.906c-2.273-.955-4.702-1.483-7.166-1.559-2.494-.11-4.992-.026-7.472.253-2.494.253-4.978.621-7.461 1.053-2.484.432-4.957.748-7.462 1.043z" transform="translate(153.625 106) translate(118.916 113.76)"/>
            </g>
            <path fill="#CFE9FD" d="M196.559 108.915L183.32 131.509 152.507 230.712 156.527 233.029 169.745 205.326 200.558 111.221z" transform="translate(153.625 106)"/>
            <path fill="#000" d="M187.604 134.268L200.832 111.653 170.019 205.758 156.801 233.461z" opacity=".068" transform="translate(153.625 106)"/>
            <path fill="#CFE9FD" d="M170.113 139.145L90.892 144.233 60.079 243.425 64.099 245.743 143.32 240.655 174.123 141.463z" transform="translate(153.625 106)"/>
            <path fill="#5E636E" d="M94.798 146.836L63.996 246.029 143.217 240.941 174.019 141.749z" opacity=".104" transform="translate(153.625 106)"/>
            <path fill="#FAFAFA" d="M78.043 241.13c-.152-.004-.294-.073-.39-.19-.096-.13-.127-.298-.084-.453.499-1.606.176-3.354-.862-4.676-1.039-1.321-2.66-2.046-4.336-1.94-.163.007-.319-.063-.421-.189-.105-.126-.137-.298-.085-.453l23.436-75.45c.06-.193.23-.331.432-.348 4.424-.295 8.214-3.277 9.545-7.51.06-.197.237-.335.442-.348l54.428-3.497c.162-.006.318.064.42.19.101.128.133.297.085.453-.51 1.605-.187 3.36.863 4.677 1.024 1.338 2.656 2.068 4.335 1.938.164-.012.322.059.421.19.105.126.136.297.084.452l-23.425 75.45c-.063.195-.238.333-.442.348-4.422.3-8.209 3.28-9.545 7.51-.058.199-.236.338-.442.348l-54.428 3.497h-.031zm-5.03-8.26c1.755.095 3.385.943 4.472 2.327 1.086 1.384 1.524 3.17 1.2 4.9l53.428-3.434c1.506-4.344 5.404-7.41 9.976-7.847l23.152-74.482c-1.758-.091-3.39-.938-4.48-2.322-1.088-1.384-1.527-3.172-1.203-4.903l-53.417 3.433c-1.511 4.34-5.406 7.405-9.977 7.848l-23.152 74.48z" transform="translate(153.625 106)"/>
            <path fill="#000" d="M90.302 144.457L94.311 146.774 63.509 245.967 59.489 243.65z" opacity=".092" transform="translate(153.625 106)"/>
            <path fill="#D0D0D0" d="M174.123 141.463l13.196-7.626-30.802 99.192c-2.052 5.35-6.588 7.742-13.207 7.626l30.813-99.192z" transform="translate(153.625 106)"/>
            <path fill="#000" d="M174.127 142.152l13.196-7.626-30.802 99.192c-2.305 5.657-6.967 7.816-13.207 7.626l30.813-99.192z" opacity=".05" transform="translate(153.625 106)"/>
            <path fill="#455A64" d="M182.868 131.256c-2.452-1.443-7.367-.906-11.029 1.2-3.662 2.107-4.61 4.972-2.157 6.415l4.44 2.592 13.197-7.626-4.01-2.328-.441-.253z" transform="translate(153.625 106)"/>
            <path fill="#E0E0E0" d="M167.083 164.11c4.756.094 9.923-.506 12.228-4.446l3.062-9.817c-2.894 3.96-6.682 6.025-12.628 5.857l-2.662 8.405z" transform="translate(153.625 106)"/>
            <path fill="#ADADAD" d="M183.32 131.509c-.778 3.813-5.64 6.193-13.207 7.636l4.01 2.318c6.503-.748 10.797-3.382 13.207-7.626l-4.01-2.328z" transform="translate(153.625 106)"/>
            <path fill="#FBCACA" d="M35.78 91.177c-8.23.495-16.974 3.233-20.72 18.138C11.312 124.22 1.114 174.22.325 180.942c-.789 6.72-.947 12.145 15.186 17.316 18.205 5.825 47.63 8.111 55.943 8.553 15.333.833 25.551-3.686 30.445-12.503 4.893-8.816 6.314-20.55-7.451-14.862-14.607 6.046-20.731 6.193-20.731 6.193l2.799-9.016c-4.578 1.99-8.419 8.258-12.997 9.016-4.062.685-34.99-10.027-34.99-10.027l10.523-44.946s9.608-28.324-3.273-39.49z" transform="translate(153.625 106)"/>
            <path fill="#37474F" fill-opacity=".594" d="M40.078 76.808c-1.379 1.522-2.842 2.967-4.381 4.326-2.957 2.884-5.055 5.406-6.429 9.276-1.373 3.871-1.196 8.526 1.298 11.806 2.494 3.28 6.74 4.807 8.5 8.433.843 1.738 1.012 3.728 1.29 5.65.59 4.158 1.87 8.324 4.423 11.663 4.137 5.431 12.983 8.172 18.637 3.222 1.773-1.718 3.038-3.892 3.656-6.283 1.61-4.83 1.5-10.068-.312-14.825-1.685-4.166-4.912-7.505-7.886-10.887-2.654-3.02-6.158-6.94-6.74-11.106 0 0-.11-7.75-.05-11.427 0-1.796 0-3.61-1.736-4.554-1.336-.796-2.822-1.307-4.364-1.5-2.376-.119-2.78.176-2.78.176-.654 2.189-1.715 4.235-3.126 6.03z" transform="translate(153.625 106)"/>
            <path fill="#FFCFCF" d="M185.152 158c-.958-3.16-4.505 2.77-6.062 11.818-1.484 8.659-3.525 17.707-3.525 17.707l-2.39 7.373s5.715-3.539 10.377-13.24c4.662-9.701 4.315-14.736 1.6-23.658z" transform="translate(153.625 106)"/>
        </g>
    </g>
</svg>
