<svg xmlns="http://www.w3.org/2000/svg" width="32" height="30" viewBox="0 0 32 30">
    <path fill="#9EA0A5" fill-rule="evenodd" d="M15.197 0c.624 0 1.13.49 1.13 1.093 0 .604-.506 1.093-1.13 1.093C8.181 2.186 2.473 7.71 2.473 14.5S8.18 26.814 15.197 26.814c7.017 0 12.725-5.524 12.725-12.314 0-.604.505-1.093 1.13-1.093.623 0 1.129.49 1.129 1.093 0 7.995-6.722 14.5-14.984 14.5S.214 22.495.214 14.5 6.935 0 15.197 0zM28.22 3.318c.449-.425 1.177-.424 1.626.002.448.425.448 1.115-.002 1.54L15.198 18.682c-.215.203-.508.317-.812.317h-.024c-.313-.006-.61-.133-.822-.351l-5.789-5.95c-.43-.442-.4-1.131.067-1.538.468-.407 1.195-.378 1.626.063l4.978 5.117z"/>
</svg>
