<svg xmlns="http://www.w3.org/2000/svg" width="17" height="14" viewBox="0 0 17 14">
    <path fill="#9EA0A5" fill-rule="evenodd" d="M2.333 5.75c-.691 0-1.25.558-1.25 1.25s.559 1.25 1.25 1.25c.692 0 1.25-.558 1.25-1.25s-.558-1.25-1.25-1.25zm0-5c-.691 0-1.25.558-1.25 1.25s.559 1.25 1.25 1.25c.692 0 1.25-.558 1.25-1.25S3.025.75 2.333.75zm0 10c-.691 0-1.25.567-1.25 1.25s.567 1.25 1.25 1.25c.684 0 1.25-.567 1.25-1.25s-.558-1.25-1.25-1.25zm2.5 2.083H16.5v-1.666H4.833v1.666zm0-5H16.5V6.167H4.833v1.666zm0-6.666v1.666H16.5V1.167H4.833z"/>
</svg>
