<svg xmlns="http://www.w3.org/2000/svg" width="15" height="15" viewBox="0 0 15 15">
    <path fill="#9EA0A5" fill-rule="evenodd" d="M6.993.333C10.68.333 13.667 3.32 13.667 7c0 3.68-2.987 6.667-6.674 6.667-3.68 0-6.66-2.987-6.66-6.667 0-3.68 2.98-6.667 6.66-6.667zm1.28 9.334H5.727c.286.953.72 1.84 1.273 2.64.553-.8.987-1.687 1.273-2.64zm-3.92 0H2.387c.64 1.106 1.66 1.953 2.886 2.373-.4-.74-.706-1.54-.92-2.373zm7.26 0H9.647c-.214.833-.52 1.633-.92 2.373 1.226-.42 2.246-1.273 2.886-2.373zm-7.52-4H1.84c-.107.426-.173.873-.173 1.333 0 .46.066.907.173 1.333h2.253C4.04 7.893 4 7.453 4 7c0-.453.04-.893.093-1.333zm4.467 0H5.44c-.06.433-.107.88-.107 1.333 0 .453.047.893.107 1.333h3.12c.06-.44.107-.88.107-1.333 0-.453-.047-.9-.107-1.333zm3.6 0H9.907c.053.44.093.88.093 1.333 0 .453-.04.893-.093 1.333h2.253c.107-.426.173-.873.173-1.333 0-.46-.066-.907-.173-1.333zM8.727 1.96c.4.74.706 1.54.92 2.373h1.966c-.64-1.1-1.66-1.953-2.886-2.373zM7 1.693c-.553.8-.987 1.687-1.273 2.64h2.546c-.286-.953-.72-1.84-1.273-2.64zm-1.727.267c-1.226.42-2.246 1.267-2.886 2.373h1.966c.214-.833.52-1.633.92-2.373z"/>
</svg>
