<svg xmlns="http://www.w3.org/2000/svg" width="16" height="16" viewBox="0 0 16 16">
    <path fill="#9EA0A5" fill-rule="evenodd" d="M15.333 8l-1.626-1.853.226-2.454-2.406-.546-1.26-2.12L8 2l-2.267-.973-1.26 2.12-2.406.54.226 2.453L.667 8l1.626 1.853-.226 2.46 2.406.547 1.26 2.12L8 14l2.267.973 1.26-2.12 2.406-.546-.226-2.454L15.333 8zm-3.006 1.407l.173 1.86-1.827.413-.953 1.607-1.72-.74-1.72.74-.953-1.607-1.827-.413.173-1.867L2.44 8l1.233-1.413L3.5 4.733l1.827-.406.953-1.607L8 3.453l1.72-.74.953 1.607 1.827.413-.173 1.86L13.56 8l-1.233 1.407zM7.333 10h1.334v1.333H7.333V10zm0-5.333h1.334v4H7.333v-4z"/>
</svg>
