<svg xmlns="http://www.w3.org/2000/svg" width="34" height="40" viewBox="0 0 34 40">
    <path fill="#9EA0A5" fill-rule="evenodd" d="M33 25.493c0-1.792-1.28-3.292-2.977-3.637v-4.008c0-.365-.18-.707-.48-.915-.301-.208-.685-.256-1.028-.127l-2.13.796c-1.4-1.45-3.1-2.543-4.964-3.214 1.832-1.353 3.02-3.523 3.02-5.966C24.442 4.329 21.105 1 17 1c-4.104 0-7.442 3.33-7.442 7.422 0 2.443 1.19 4.613 3.02 5.966-1.863.671-3.563 1.764-4.962 3.214l-2.131-.796c-.343-.129-.727-.081-1.028.127-.3.208-.48.55-.48.915v4.008C2.28 22.201 1 23.701 1 25.493s1.28 3.291 2.977 3.636v4.305c0 .464.288.88.724 1.043l11.907 4.453c.251.093.533.093.784 0l11.907-4.453c.436-.163.724-.579.724-1.043V29.13C31.72 28.784 33 27.285 33 25.493zM11.79 8.422c0-2.865 2.338-5.195 5.21-5.195s5.21 2.33 5.21 5.195-2.338 5.195-5.21 5.195-5.21-2.33-5.21-5.195zM17 15.844c2.615 0 5.113.943 7.062 2.627L17 21.112l-7.062-2.641c1.949-1.684 4.447-2.627 7.062-2.627zM3.233 25.493c0-.819.667-1.485 1.488-1.485h.744v2.97h-.744c-.82 0-1.488-.667-1.488-1.485zm2.976 3.673c.848-.172 1.489-.922 1.489-1.818v-3.71c0-.897-.64-1.647-1.489-1.819v-2.364l9.675 3.618V36.28l-9.675-3.618v-3.497zm11.907 7.115V23.073l9.675-3.618v2.364c-.848.172-1.489.922-1.489 1.818v3.711c0 .896.64 1.646 1.489 1.818v3.497l-9.675 3.618zm11.163-9.304h-.744v-2.969h.744c.82 0 1.488.666 1.488 1.485 0 .818-.667 1.484-1.488 1.484z"/>
</svg>
