<svg xmlns="http://www.w3.org/2000/svg" width="38" height="38" viewBox="0 0 38 38">
    <path fill="#9EA0A5" fill-rule="evenodd" d="M32.333 1.609c.29.145.435.434.435.724v2.899h2.899c.29 0 .58.145.724.435 0 .29 0 .58-.145.87l-5.072 5.072c-.145 0-.435.145-.58.145l-3.325-.001-.432.436c2.332 2.574 3.757 5.984 3.757 9.71 0 7.97-6.522 14.492-14.493 14.492-7.97 0-14.492-6.521-14.492-14.492 0-7.971 6.521-14.493 14.492-14.493 3.731 0 7.144 1.428 9.72 3.765l.425-.43V7.407c0-.145.145-.435.145-.58l5.073-5.072c.29-.145.58-.145.87-.145zM16.101 8.855c-7.246 0-13.043 5.797-13.043 13.044 0 7.246 5.797 13.043 13.043 13.043 7.247 0 13.044-5.797 13.044-13.043 0-3.359-1.245-6.406-3.303-8.71l-2.571 2.587c1.404 1.644 2.25 3.781 2.25 6.123 0 5.217-4.202 9.42-9.42 9.42-5.217 0-9.42-4.203-9.42-9.42 0-5.218 4.203-9.42 9.42-9.42 2.357 0 4.506.856 6.155 2.277l2.57-2.584c-2.305-2.066-5.358-3.317-8.725-3.317zm0 5.073c-4.347 0-7.97 3.623-7.97 7.97 0 4.348 3.623 7.972 7.97 7.972 4.348 0 7.971-3.624 7.971-7.971 0-1.91-.7-3.681-1.852-5.066l-2.535 2.55c.485.703.764 1.566.764 2.516 0 2.463-1.884 4.347-4.348 4.347-2.463 0-4.347-1.884-4.347-4.347 0-2.464 1.884-4.348 4.347-4.348.977 0 1.862.296 2.575.806l2.53-2.544c-1.39-1.173-3.176-1.885-5.105-1.885zm0 5.072c-1.594 0-2.898 1.304-2.898 2.899 0 1.594 1.304 2.898 2.898 2.898 1.595 0 2.899-1.304 2.899-2.898 0-.523-.14-1.015-.385-1.44l-2.006 2.018c0 .146-.29.146-.435.146-.145 0-.435 0-.58-.146-.29-.291-.29-.729 0-1.02l2.018-2.03c-.44-.27-.958-.427-1.51-.427zM31.32 4.072l-3.623 3.624v2.608h2.608l3.624-3.623h-1.885c-.434 0-.724-.29-.724-.724V4.072z"/>
</svg>
